<?xml version="1.0" encoding="utf-8" standalone="no"?>
<!DOCTYPE svg PUBLIC "-//W3C//DTD SVG 1.1//EN"
  "http://www.w3.org/Graphics/SVG/1.1/DTD/svg11.dtd">
<svg xmlns:xlink="http://www.w3.org/1999/xlink" width="349.2pt" height="347.04pt" viewBox="0 0 349.2 347.04" xmlns="http://www.w3.org/2000/svg" version="1.1">
 <metadata>
  <rdf:RDF xmlns:dc="http://purl.org/dc/elements/1.1/" xmlns:cc="http://creativecommons.org/ns#" xmlns:rdf="http://www.w3.org/1999/02/22-rdf-syntax-ns#">
   <cc:Work>
    <dc:type rdf:resource="http://purl.org/dc/dcmitype/StillImage"/>
    <dc:date>2025-06-08T01:10:22.323158</dc:date>
    <dc:format>image/svg+xml</dc:format>
    <dc:creator>
     <cc:Agent>
      <dc:title>Matplotlib v3.10.3, https://matplotlib.org/</dc:title>
     </cc:Agent>
    </dc:creator>
   </cc:Work>
  </rdf:RDF>
 </metadata>
 <defs>
  <style type="text/css">*{stroke-linejoin: round; stroke-linecap: butt}</style>
 </defs>
 <g id="figure_1">
  <g id="patch_1">
   <path d="M 0 347.04 
L 349.2 347.04 
L 349.2 -0 
L 0 -0 
L 0 347.04 
z
" style="fill: none"/>
  </g>
  <g id="axes_1">
   <g id="patch_2">
    <path d="M 7.2 339.84 
L 342 339.84 
L 342 7.2 
L 7.2 7.2 
L 7.2 339.84 
z
" style="fill: none"/>
   </g>
   <g id="matplotlib.axis_1">
    <g id="xtick_1"/>
    <g id="xtick_2"/>
    <g id="xtick_3"/>
    <g id="xtick_4"/>
    <g id="xtick_5"/>
    <g id="xtick_6"/>
    <g id="xtick_7"/>
   </g>
   <g id="matplotlib.axis_2">
    <g id="ytick_1"/>
    <g id="ytick_2"/>
    <g id="ytick_3"/>
    <g id="ytick_4"/>
    <g id="ytick_5"/>
    <g id="ytick_6"/>
    <g id="ytick_7"/>
   </g>
   <g id="patch_3">
    <path d="M 336.6 12.565161 
L 336.6 334.474839 
L 12.6 334.474839 
L 120.6 227.171613 
L 12.6 173.52 
L 12.6 12.565161 
L 336.6 12.565161 
z
" clip-path="url(#pa5817cc21d)" style="fill: none; opacity: 0"/>
   </g>
   <g id="line2d_1">
    <path d="M 336.6 12.565161 
L 336.6 334.474839 
L 12.6 334.474839 
L 120.6 227.171613 
L 12.6 173.52 
L 12.6 12.565161 
L 336.6 12.565161 
" clip-path="url(#pa5817cc21d)" style="fill: none"/>
   </g>
   <g id="patch_4">
    <path d="M 38.673506 323.744516 
L 282.6 323.744516 
L 79.327922 283.352387 
z
" clip-path="url(#pa5817cc21d)" style="fill: #2ca02c"/>
   </g>
   <g id="line2d_2">
    <path d="M 336.6 12.565161 
L 336.6 334.474839 
L 79.327922 283.352387 
L 120.6 227.171613 
L 12.6 173.52 
L 12.6 12.565161 
L 336.6 12.565161 
" clip-path="url(#pa5817cc21d)" style="fill: none; stroke: #ffffff; stroke-width: 8; stroke-linecap: square"/>
   </g>
   <g id="patch_5">
    <path d="M 12.6 334.474839 
L 120.6 227.171613 
L 12.6 173.52 
z
" clip-path="url(#pa5817cc21d)" style="fill: #d62728"/>
   </g>
   <g id="line2d_3">
    <path d="M 38.673506 323.744516 
L 282.6 323.744516 
L 79.327922 283.352387 
L 38.673506 323.744516 
" clip-path="url(#pa5817cc21d)" style="fill: none"/>
   </g>
   <g id="patch_6">
    <path d="M 336.6 12.565161 
L 336.6 334.474839 
L 79.327922 283.352387 
L 120.6 227.171613 
L 12.6 173.52 
L 12.6 12.565161 
L 336.6 12.565161 
z
" clip-path="url(#pa5817cc21d)" style="fill: none; opacity: 0"/>
   </g>
   <g id="line2d_4">
    <path d="M 12.6 334.474839 
L 120.6 227.171613 
L 12.6 173.52 
L 12.6 334.474839 
" clip-path="url(#pa5817cc21d)" style="fill: none"/>
   </g>
   <g id="line2d_5">
    <path d="M 336.6 12.565161 
L 336.6 334.474839 
L 79.327922 283.352387 
L 120.6 227.171613 
L 12.6 173.52 
L 12.6 12.565161 
L 336.6 12.565161 
" clip-path="url(#pa5817cc21d)" style="fill: none; stroke: #000000; stroke-width: 4; stroke-linecap: square"/>
   </g>
   <g id="patch_7">
    <path d="M 344.1 167.250778 
Q 340.35 174.750778 336.6 182.250778 
Q 332.85 174.750778 329.1 167.250778 
z
" clip-path="url(#pa5817cc21d)" style="stroke: #ffffff; stroke-linecap: round"/>
   </g>
   <g id="patch_8">
    <path d="M 212.58326 317.478149 
Q 205.957956 312.338319 199.332653 307.198489 
Q 207.4197 304.982144 215.506746 302.7658 
z
" clip-path="url(#pa5817cc21d)" style="stroke: #ffffff; stroke-linecap: round"/>
   </g>
   <g id="patch_9">
    <path d="M 90.224056 255.852247 
Q 97.686527 252.02811 105.148999 248.203973 
Q 103.730825 256.468433 102.312652 264.732892 
z
" clip-path="url(#pa5817cc21d)" style="stroke: #ffffff; stroke-linecap: round"/>
   </g>
   <g id="patch_10">
    <path d="M 68.831661 209.828901 
Q 63.783191 203.13372 58.734721 196.438539 
Q 67.119948 196.416872 75.505175 196.395204 
z
" clip-path="url(#pa5817cc21d)" style="stroke: #ffffff; stroke-linecap: round"/>
   </g>
   <g id="patch_11">
    <path d="M 5.1 99.311802 
Q 8.85 91.811802 12.6 84.311802 
Q 16.35 91.811802 20.1 99.311802 
z
" clip-path="url(#pa5817cc21d)" style="stroke: #ffffff; stroke-linecap: round"/>
   </g>
   <g id="patch_12">
    <path d="M 168.402241 5.065161 
Q 175.902241 8.815161 183.402241 12.565161 
Q 175.902241 16.315161 168.402241 20.065161 
z
" clip-path="url(#pa5817cc21d)" style="stroke: #ffffff; stroke-linecap: round"/>
   </g>
  </g>
 </g>
 <defs>
  <clipPath id="pa5817cc21d">
   <rect x="7.2" y="7.2" width="334.8" height="332.64"/>
  </clipPath>
 </defs>
</svg>
