<?xml version="1.0" encoding="utf-8" standalone="no"?>
<!DOCTYPE svg PUBLIC "-//W3C//DTD SVG 1.1//EN"
  "http://www.w3.org/Graphics/SVG/1.1/DTD/svg11.dtd">
<svg xmlns:xlink="http://www.w3.org/1999/xlink" width="935.1pt" height="291.6pt" viewBox="0 0 935.1 291.6" xmlns="http://www.w3.org/2000/svg" version="1.1">
 <metadata>
  <rdf:RDF xmlns:dc="http://purl.org/dc/elements/1.1/" xmlns:cc="http://creativecommons.org/ns#" xmlns:rdf="http://www.w3.org/1999/02/22-rdf-syntax-ns#">
   <cc:Work>
    <dc:type rdf:resource="http://purl.org/dc/dcmitype/StillImage"/>
    <dc:date>2025-05-25T18:52:00.411263</dc:date>
    <dc:format>image/svg+xml</dc:format>
    <dc:creator>
     <cc:Agent>
      <dc:title>Matplotlib v3.10.3, https://matplotlib.org/</dc:title>
     </cc:Agent>
    </dc:creator>
   </cc:Work>
  </rdf:RDF>
 </metadata>
 <defs>
  <style type="text/css">*{stroke-linejoin: round; stroke-linecap: butt}</style>
 </defs>
 <g id="figure_1">
  <g id="patch_1">
   <path d="M 0 291.6 
L 935.1 291.6 
L 935.1 0 
L 0 0 
L 0 291.6 
z
" style="fill: none"/>
  </g>
  <g id="axes_1">
   <g id="patch_2">
    <path d="M 7.2 284.4 
L 277.994118 284.4 
L 277.994118 7.2 
L 7.2 7.2 
L 7.2 284.4 
z
" style="fill: none"/>
   </g>
   <g id="patch_3">
    <path d="M 9.419624 282.127869 
L 76.008341 282.127869 
L 53.812102 191.242623 
z
" clip-path="url(#p855a5380b6)" style="fill: #1f77b4"/>
   </g>
   <g id="patch_4">
    <path d="M 53.812102 191.242623 
L 76.008341 282.127869 
L 76.008341 145.8 
z
" clip-path="url(#p855a5380b6)" style="fill: #aec7e8"/>
   </g>
   <g id="patch_5">
    <path d="M 76.008341 282.127869 
L 142.597059 282.127869 
L 142.597059 145.8 
L 98.204581 100.357377 
L 76.008341 145.8 
z
" clip-path="url(#p855a5380b6)" style="fill: #ff7f0e"/>
   </g>
   <g id="patch_6">
    <path d="M 9.419624 282.127869 
L 98.204581 100.357377 
L 53.812102 54.914754 
z
" clip-path="url(#p855a5380b6)" style="fill: #ffbb78"/>
   </g>
   <g id="patch_7">
    <path d="M 9.419624 282.127869 
L 53.812102 54.914754 
L 9.419624 9.472131 
z
" clip-path="url(#p855a5380b6)" style="fill: #2ca02c"/>
   </g>
   <g id="patch_8">
    <path d="M 9.419624 9.472131 
L 98.204581 100.357377 
L 142.597059 9.472131 
z
" clip-path="url(#p855a5380b6)" style="fill: #98df8a"/>
   </g>
   <g id="patch_9">
    <path d="M 142.597059 282.127869 
L 275.774494 282.127869 
L 186.989537 191.242623 
z
" clip-path="url(#p855a5380b6)" style="fill: #d62728"/>
   </g>
   <g id="patch_10">
    <path d="M 142.597059 145.8 
L 186.989537 100.357377 
L 142.597059 9.472131 
z
" clip-path="url(#p855a5380b6)" style="fill: #ff9896"/>
   </g>
   <g id="patch_11">
    <path d="M 98.204581 100.357377 
L 142.597059 145.8 
L 142.597059 9.472131 
z
" clip-path="url(#p855a5380b6)" style="fill: #9467bd"/>
   </g>
   <g id="patch_12">
    <path d="M 186.989537 191.242623 
L 275.774494 282.127869 
L 209.185776 145.8 
z
" clip-path="url(#p855a5380b6)" style="fill: #c5b0d5"/>
   </g>
   <g id="patch_13">
    <path d="M 209.185776 145.8 
L 275.774494 282.127869 
L 275.774494 145.8 
z
" clip-path="url(#p855a5380b6)" style="fill: #8c564b"/>
   </g>
   <g id="patch_14">
    <path d="M 209.185776 145.8 
L 275.774494 145.8 
L 275.774494 100.357377 
z
" clip-path="url(#p855a5380b6)" style="fill: #c49c94"/>
   </g>
   <g id="patch_15">
    <path d="M 142.597059 282.127869 
L 209.185776 145.8 
L 186.989537 100.357377 
L 142.597059 145.8 
z
" clip-path="url(#p855a5380b6)" style="fill: #e377c2"/>
   </g>
   <g id="patch_16">
    <path d="M 142.597059 9.472131 
L 209.185776 145.8 
L 275.774494 100.357377 
L 275.774494 9.472131 
z
" clip-path="url(#p855a5380b6)" style="fill: #f7b6d2"/>
   </g>
   <g id="matplotlib.axis_1">
    <g id="xtick_1"/>
    <g id="xtick_2"/>
    <g id="xtick_3"/>
    <g id="xtick_4"/>
    <g id="xtick_5"/>
    <g id="xtick_6"/>
    <g id="xtick_7"/>
   </g>
   <g id="matplotlib.axis_2">
    <g id="ytick_1"/>
    <g id="ytick_2"/>
    <g id="ytick_3"/>
    <g id="ytick_4"/>
    <g id="ytick_5"/>
    <g id="ytick_6"/>
    <g id="ytick_7"/>
   </g>
   <g id="line2d_1">
    <path d="M 9.419624 282.127869 
L 76.008341 282.127869 
L 53.812102 191.242623 
L 9.419624 282.127869 
" clip-path="url(#p855a5380b6)" style="fill: none"/>
   </g>
   <g id="line2d_2">
    <path d="M 53.812102 191.242623 
L 76.008341 282.127869 
L 76.008341 145.8 
L 53.812102 191.242623 
" clip-path="url(#p855a5380b6)" style="fill: none"/>
   </g>
   <g id="line2d_3">
    <path d="M 76.008341 282.127869 
L 142.597059 282.127869 
L 142.597059 145.8 
L 98.204581 100.357377 
L 76.008341 145.8 
L 76.008341 282.127869 
" clip-path="url(#p855a5380b6)" style="fill: none"/>
   </g>
   <g id="line2d_4">
    <path d="M 9.419624 282.127869 
L 98.204581 100.357377 
L 53.812102 54.914754 
L 9.419624 282.127869 
" clip-path="url(#p855a5380b6)" style="fill: none"/>
   </g>
   <g id="line2d_5">
    <path d="M 9.419624 282.127869 
L 53.812102 54.914754 
L 9.419624 9.472131 
L 9.419624 282.127869 
" clip-path="url(#p855a5380b6)" style="fill: none"/>
   </g>
   <g id="line2d_6">
    <path d="M 9.419624 9.472131 
L 98.204581 100.357377 
L 142.597059 9.472131 
L 9.419624 9.472131 
" clip-path="url(#p855a5380b6)" style="fill: none"/>
   </g>
   <g id="line2d_7">
    <path d="M 142.597059 282.127869 
L 275.774494 282.127869 
L 186.989537 191.242623 
L 142.597059 282.127869 
" clip-path="url(#p855a5380b6)" style="fill: none"/>
   </g>
   <g id="line2d_8">
    <path d="M 142.597059 145.8 
L 186.989537 100.357377 
L 142.597059 9.472131 
L 142.597059 145.8 
" clip-path="url(#p855a5380b6)" style="fill: none"/>
   </g>
   <g id="line2d_9">
    <path d="M 98.204581 100.357377 
L 142.597059 145.8 
L 142.597059 9.472131 
L 98.204581 100.357377 
" clip-path="url(#p855a5380b6)" style="fill: none"/>
   </g>
   <g id="line2d_10">
    <path d="M 186.989537 191.242623 
L 275.774494 282.127869 
L 209.185776 145.8 
L 186.989537 191.242623 
" clip-path="url(#p855a5380b6)" style="fill: none"/>
   </g>
   <g id="line2d_11">
    <path d="M 209.185776 145.8 
L 275.774494 282.127869 
L 275.774494 145.8 
L 209.185776 145.8 
" clip-path="url(#p855a5380b6)" style="fill: none"/>
   </g>
   <g id="line2d_12">
    <path d="M 209.185776 145.8 
L 275.774494 145.8 
L 275.774494 100.357377 
L 209.185776 145.8 
" clip-path="url(#p855a5380b6)" style="fill: none"/>
   </g>
   <g id="line2d_13">
    <path d="M 142.597059 282.127869 
L 209.185776 145.8 
L 186.989537 100.357377 
L 142.597059 145.8 
L 142.597059 282.127869 
" clip-path="url(#p855a5380b6)" style="fill: none"/>
   </g>
   <g id="line2d_14">
    <path d="M 142.597059 9.472131 
L 209.185776 145.8 
L 275.774494 100.357377 
L 275.774494 9.472131 
L 142.597059 9.472131 
" clip-path="url(#p855a5380b6)" style="fill: none"/>
   </g>
  </g>
  <g id="axes_2">
   <g id="patch_17">
    <path d="M 332.152941 284.4 
L 602.947059 284.4 
L 602.947059 7.2 
L 332.152941 7.2 
L 332.152941 284.4 
z
" style="fill: none"/>
   </g>
   <g id="patch_18">
    <path d="M 334.372565 282.127869 
L 400.961283 282.127869 
L 378.765043 191.242623 
z
" clip-path="url(#pa5841034ae)" style="fill: #1f77b4"/>
   </g>
   <g id="patch_19">
    <path d="M 378.765043 191.242623 
L 400.961283 282.127869 
L 400.961283 145.8 
z
" clip-path="url(#pa5841034ae)" style="fill: #aec7e8"/>
   </g>
   <g id="patch_20">
    <path d="M 400.961283 282.127869 
L 467.55 282.127869 
L 467.55 145.8 
L 423.157522 100.357377 
L 400.961283 145.8 
z
" clip-path="url(#pa5841034ae)" style="fill: #ff7f0e"/>
   </g>
   <g id="patch_21">
    <path d="M 334.372565 282.127869 
L 423.157522 100.357377 
L 378.765043 54.914754 
z
" clip-path="url(#pa5841034ae)" style="fill: #ffbb78"/>
   </g>
   <g id="patch_22">
    <path d="M 334.372565 282.127869 
L 378.765043 54.914754 
L 334.372565 9.472131 
z
" clip-path="url(#pa5841034ae)" style="fill: #2ca02c"/>
   </g>
   <g id="patch_23">
    <path d="M 467.55 282.127869 
L 600.727435 282.127869 
L 556.334957 191.242623 
z
" clip-path="url(#pa5841034ae)" style="fill: #98df8a"/>
   </g>
   <g id="patch_24">
    <path d="M 378.765043 54.914754 
L 467.55 145.8 
L 467.55 9.472131 
z
" clip-path="url(#pa5841034ae)" style="fill: #d62728"/>
   </g>
   <g id="patch_25">
    <path d="M 334.372565 9.472131 
L 378.765043 54.914754 
L 467.55 9.472131 
z
" clip-path="url(#pa5841034ae)" style="fill: #ff9896"/>
   </g>
   <g id="patch_26">
    <path d="M 556.334957 191.242623 
L 600.727435 282.127869 
L 600.727435 145.8 
z
" clip-path="url(#pa5841034ae)" style="fill: #9467bd"/>
   </g>
   <g id="patch_27">
    <path d="M 467.55 282.127869 
L 556.334957 191.242623 
L 534.138717 145.8 
z
" clip-path="url(#pa5841034ae)" style="fill: #c5b0d5"/>
   </g>
   <g id="patch_28">
    <path d="M 467.55 282.127869 
L 534.138717 145.8 
L 467.55 145.8 
z
" clip-path="url(#pa5841034ae)" style="fill: #8c564b"/>
   </g>
   <g id="patch_29">
    <path d="M 467.55 145.8 
L 534.138717 145.8 
L 467.55 100.357377 
z
" clip-path="url(#pa5841034ae)" style="fill: #c49c94"/>
   </g>
   <g id="patch_30">
    <path d="M 534.138717 145.8 
L 556.334957 191.242623 
L 600.727435 145.8 
L 600.727435 9.472131 
z
" clip-path="url(#pa5841034ae)" style="fill: #e377c2"/>
   </g>
   <g id="patch_31">
    <path d="M 467.55 100.357377 
L 534.138717 145.8 
L 600.727435 9.472131 
L 467.55 9.472131 
z
" clip-path="url(#pa5841034ae)" style="fill: #f7b6d2"/>
   </g>
   <g id="matplotlib.axis_3">
    <g id="xtick_8"/>
    <g id="xtick_9"/>
    <g id="xtick_10"/>
    <g id="xtick_11"/>
    <g id="xtick_12"/>
    <g id="xtick_13"/>
    <g id="xtick_14"/>
   </g>
   <g id="matplotlib.axis_4">
    <g id="ytick_8"/>
    <g id="ytick_9"/>
    <g id="ytick_10"/>
    <g id="ytick_11"/>
    <g id="ytick_12"/>
    <g id="ytick_13"/>
    <g id="ytick_14"/>
   </g>
   <g id="line2d_15">
    <path d="M 334.372565 282.127869 
L 400.961283 282.127869 
L 378.765043 191.242623 
L 334.372565 282.127869 
" clip-path="url(#pa5841034ae)" style="fill: none"/>
   </g>
   <g id="line2d_16">
    <path d="M 378.765043 191.242623 
L 400.961283 282.127869 
L 400.961283 145.8 
L 378.765043 191.242623 
" clip-path="url(#pa5841034ae)" style="fill: none"/>
   </g>
   <g id="line2d_17">
    <path d="M 400.961283 282.127869 
L 467.55 282.127869 
L 467.55 145.8 
L 423.157522 100.357377 
L 400.961283 145.8 
L 400.961283 282.127869 
" clip-path="url(#pa5841034ae)" style="fill: none"/>
   </g>
   <g id="line2d_18">
    <path d="M 334.372565 282.127869 
L 423.157522 100.357377 
L 378.765043 54.914754 
L 334.372565 282.127869 
" clip-path="url(#pa5841034ae)" style="fill: none"/>
   </g>
   <g id="line2d_19">
    <path d="M 334.372565 282.127869 
L 378.765043 54.914754 
L 334.372565 9.472131 
L 334.372565 282.127869 
" clip-path="url(#pa5841034ae)" style="fill: none"/>
   </g>
   <g id="line2d_20">
    <path d="M 467.55 282.127869 
L 600.727435 282.127869 
L 556.334957 191.242623 
L 467.55 282.127869 
" clip-path="url(#pa5841034ae)" style="fill: none"/>
   </g>
   <g id="line2d_21">
    <path d="M 378.765043 54.914754 
L 467.55 145.8 
L 467.55 9.472131 
L 378.765043 54.914754 
" clip-path="url(#pa5841034ae)" style="fill: none"/>
   </g>
   <g id="line2d_22">
    <path d="M 334.372565 9.472131 
L 378.765043 54.914754 
L 467.55 9.472131 
L 334.372565 9.472131 
" clip-path="url(#pa5841034ae)" style="fill: none"/>
   </g>
   <g id="line2d_23">
    <path d="M 556.334957 191.242623 
L 600.727435 282.127869 
L 600.727435 145.8 
L 556.334957 191.242623 
" clip-path="url(#pa5841034ae)" style="fill: none"/>
   </g>
   <g id="line2d_24">
    <path d="M 467.55 282.127869 
L 556.334957 191.242623 
L 534.138717 145.8 
L 467.55 282.127869 
" clip-path="url(#pa5841034ae)" style="fill: none"/>
   </g>
   <g id="line2d_25">
    <path d="M 467.55 282.127869 
L 534.138717 145.8 
L 467.55 145.8 
L 467.55 282.127869 
" clip-path="url(#pa5841034ae)" style="fill: none"/>
   </g>
   <g id="line2d_26">
    <path d="M 467.55 145.8 
L 534.138717 145.8 
L 467.55 100.357377 
L 467.55 145.8 
" clip-path="url(#pa5841034ae)" style="fill: none"/>
   </g>
   <g id="line2d_27">
    <path d="M 534.138717 145.8 
L 556.334957 191.242623 
L 600.727435 145.8 
L 600.727435 9.472131 
L 534.138717 145.8 
" clip-path="url(#pa5841034ae)" style="fill: none"/>
   </g>
   <g id="line2d_28">
    <path d="M 467.55 100.357377 
L 534.138717 145.8 
L 600.727435 9.472131 
L 467.55 9.472131 
L 467.55 100.357377 
" clip-path="url(#pa5841034ae)" style="fill: none"/>
   </g>
  </g>
  <g id="axes_3">
   <g id="patch_32">
    <path d="M 657.105882 284.4 
L 927.9 284.4 
L 927.9 7.2 
L 657.105882 7.2 
L 657.105882 284.4 
z
" style="fill: none"/>
   </g>
   <g id="patch_33">
    <path d="M 703.717985 259.406557 
L 792.502941 282.127869 
L 792.502941 213.963934 
z
" clip-path="url(#p28547d2d49)" style="fill: #1f77b4"/>
   </g>
   <g id="patch_34">
    <path d="M 659.325506 282.127869 
L 792.502941 282.127869 
L 703.717985 259.406557 
z
" clip-path="url(#p28547d2d49)" style="fill: #aec7e8"/>
   </g>
   <g id="patch_35">
    <path d="M 659.325506 77.636066 
L 792.502941 77.636066 
L 836.895419 54.914754 
L 792.502941 9.472131 
L 659.325506 9.472131 
z
" clip-path="url(#p28547d2d49)" style="fill: #ff7f0e"/>
   </g>
   <g id="patch_36">
    <path d="M 659.325506 145.8 
L 881.287898 100.357377 
L 836.895419 54.914754 
z
" clip-path="url(#p28547d2d49)" style="fill: #ffbb78"/>
   </g>
   <g id="patch_37">
    <path d="M 659.325506 145.8 
L 925.680376 145.8 
L 881.287898 100.357377 
z
" clip-path="url(#p28547d2d49)" style="fill: #2ca02c"/>
   </g>
   <g id="patch_38">
    <path d="M 836.895419 54.914754 
L 925.680376 145.8 
L 925.680376 9.472131 
z
" clip-path="url(#p28547d2d49)" style="fill: #98df8a"/>
   </g>
   <g id="patch_39">
    <path d="M 659.325506 282.127869 
L 748.110463 236.685246 
L 659.325506 145.8 
z
" clip-path="url(#p28547d2d49)" style="fill: #d62728"/>
   </g>
   <g id="patch_40">
    <path d="M 659.325506 145.8 
L 748.110463 191.242623 
L 792.502941 145.8 
z
" clip-path="url(#p28547d2d49)" style="fill: #ff9896"/>
   </g>
   <g id="patch_41">
    <path d="M 792.502941 9.472131 
L 836.895419 54.914754 
L 925.680376 9.472131 
z
" clip-path="url(#p28547d2d49)" style="fill: #9467bd"/>
   </g>
   <g id="patch_42">
    <path d="M 659.325506 145.8 
L 748.110463 236.685246 
L 792.502941 213.963934 
z
" clip-path="url(#p28547d2d49)" style="fill: #c5b0d5"/>
   </g>
   <g id="patch_43">
    <path d="M 659.325506 145.8 
L 792.502941 77.636066 
L 659.325506 77.636066 
z
" clip-path="url(#p28547d2d49)" style="fill: #8c564b"/>
   </g>
   <g id="patch_44">
    <path d="M 792.502941 282.127869 
L 836.895419 282.127869 
L 792.502941 213.963934 
z
" clip-path="url(#p28547d2d49)" style="fill: #c49c94"/>
   </g>
   <g id="patch_45">
    <path d="M 748.110463 191.242623 
L 792.502941 213.963934 
L 925.680376 145.8 
L 792.502941 145.8 
z
" clip-path="url(#p28547d2d49)" style="fill: #e377c2"/>
   </g>
   <g id="patch_46">
    <path d="M 792.502941 213.963934 
L 836.895419 282.127869 
L 925.680376 282.127869 
L 925.680376 145.8 
z
" clip-path="url(#p28547d2d49)" style="fill: #f7b6d2"/>
   </g>
   <g id="matplotlib.axis_5">
    <g id="xtick_15"/>
    <g id="xtick_16"/>
    <g id="xtick_17"/>
    <g id="xtick_18"/>
    <g id="xtick_19"/>
    <g id="xtick_20"/>
    <g id="xtick_21"/>
   </g>
   <g id="matplotlib.axis_6">
    <g id="ytick_15"/>
    <g id="ytick_16"/>
    <g id="ytick_17"/>
    <g id="ytick_18"/>
    <g id="ytick_19"/>
    <g id="ytick_20"/>
    <g id="ytick_21"/>
   </g>
   <g id="line2d_29">
    <path d="M 703.717985 259.406557 
L 792.502941 282.127869 
L 792.502941 213.963934 
L 703.717985 259.406557 
" clip-path="url(#p28547d2d49)" style="fill: none"/>
   </g>
   <g id="line2d_30">
    <path d="M 659.325506 282.127869 
L 792.502941 282.127869 
L 703.717985 259.406557 
L 659.325506 282.127869 
" clip-path="url(#p28547d2d49)" style="fill: none"/>
   </g>
   <g id="line2d_31">
    <path d="M 659.325506 77.636066 
L 792.502941 77.636066 
L 836.895419 54.914754 
L 792.502941 9.472131 
L 659.325506 9.472131 
L 659.325506 77.636066 
" clip-path="url(#p28547d2d49)" style="fill: none"/>
   </g>
   <g id="line2d_32">
    <path d="M 659.325506 145.8 
L 881.287898 100.357377 
L 836.895419 54.914754 
L 659.325506 145.8 
" clip-path="url(#p28547d2d49)" style="fill: none"/>
   </g>
   <g id="line2d_33">
    <path d="M 659.325506 145.8 
L 925.680376 145.8 
L 881.287898 100.357377 
L 659.325506 145.8 
" clip-path="url(#p28547d2d49)" style="fill: none"/>
   </g>
   <g id="line2d_34">
    <path d="M 836.895419 54.914754 
L 925.680376 145.8 
L 925.680376 9.472131 
L 836.895419 54.914754 
" clip-path="url(#p28547d2d49)" style="fill: none"/>
   </g>
   <g id="line2d_35">
    <path d="M 659.325506 282.127869 
L 748.110463 236.685246 
L 659.325506 145.8 
L 659.325506 282.127869 
" clip-path="url(#p28547d2d49)" style="fill: none"/>
   </g>
   <g id="line2d_36">
    <path d="M 659.325506 145.8 
L 748.110463 191.242623 
L 792.502941 145.8 
L 659.325506 145.8 
" clip-path="url(#p28547d2d49)" style="fill: none"/>
   </g>
   <g id="line2d_37">
    <path d="M 792.502941 9.472131 
L 836.895419 54.914754 
L 925.680376 9.472131 
L 792.502941 9.472131 
" clip-path="url(#p28547d2d49)" style="fill: none"/>
   </g>
   <g id="line2d_38">
    <path d="M 659.325506 145.8 
L 748.110463 236.685246 
L 792.502941 213.963934 
L 659.325506 145.8 
" clip-path="url(#p28547d2d49)" style="fill: none"/>
   </g>
   <g id="line2d_39">
    <path d="M 659.325506 145.8 
L 792.502941 77.636066 
L 659.325506 77.636066 
L 659.325506 145.8 
" clip-path="url(#p28547d2d49)" style="fill: none"/>
   </g>
   <g id="line2d_40">
    <path d="M 792.502941 282.127869 
L 836.895419 282.127869 
L 792.502941 213.963934 
L 792.502941 282.127869 
" clip-path="url(#p28547d2d49)" style="fill: none"/>
   </g>
   <g id="line2d_41">
    <path d="M 748.110463 191.242623 
L 792.502941 213.963934 
L 925.680376 145.8 
L 792.502941 145.8 
L 748.110463 191.242623 
" clip-path="url(#p28547d2d49)" style="fill: none"/>
   </g>
   <g id="line2d_42">
    <path d="M 792.502941 213.963934 
L 836.895419 282.127869 
L 925.680376 282.127869 
L 925.680376 145.8 
L 792.502941 213.963934 
" clip-path="url(#p28547d2d49)" style="fill: none"/>
   </g>
  </g>
 </g>
 <defs>
  <clipPath id="p855a5380b6">
   <rect x="7.2" y="7.2" width="270.794118" height="277.2"/>
  </clipPath>
  <clipPath id="pa5841034ae">
   <rect x="332.152941" y="7.2" width="270.794118" height="277.2"/>
  </clipPath>
  <clipPath id="p28547d2d49">
   <rect x="657.105882" y="7.2" width="270.794118" height="277.2"/>
  </clipPath>
 </defs>
</svg>
