<?xml version="1.0" encoding="utf-8" standalone="no"?>
<!DOCTYPE svg PUBLIC "-//W3C//DTD SVG 1.1//EN"
  "http://www.w3.org/Graphics/SVG/1.1/DTD/svg11.dtd">
<svg xmlns:xlink="http://www.w3.org/1999/xlink" width="460.8pt" height="402.48pt" viewBox="0 0 460.8 402.48" xmlns="http://www.w3.org/2000/svg" version="1.1">
 <metadata>
  <rdf:RDF xmlns:dc="http://purl.org/dc/elements/1.1/" xmlns:cc="http://creativecommons.org/ns#" xmlns:rdf="http://www.w3.org/1999/02/22-rdf-syntax-ns#">
   <cc:Work>
    <dc:type rdf:resource="http://purl.org/dc/dcmitype/StillImage"/>
    <dc:date>2025-05-27T23:51:16.650046</dc:date>
    <dc:format>image/svg+xml</dc:format>
    <dc:creator>
     <cc:Agent>
      <dc:title>Matplotlib v3.10.3, https://matplotlib.org/</dc:title>
     </cc:Agent>
    </dc:creator>
   </cc:Work>
  </rdf:RDF>
 </metadata>
 <defs>
  <style type="text/css">*{stroke-linejoin: round; stroke-linecap: butt}</style>
 </defs>
 <g id="figure_1">
  <g id="patch_1">
   <path d="M 0 402.48 
L 460.8 402.48 
L 460.8 -0 
L 0 -0 
L 0 402.48 
z
" style="fill: none"/>
  </g>
  <g id="axes_1">
   <g id="patch_2">
    <path d="M 7.2 395.28 
L 453.6 395.28 
L 453.6 7.2 
L 7.2 7.2 
L 7.2 395.28 
z
" style="fill: none"/>
   </g>
   <g id="patch_3">
    <path d="M 263.850994 85.034112 
Q 241.269031 105.022791 219.524245 124.270434 
" clip-path="url(#pf19a345f29)" style="fill: none; stroke: #808080; stroke-linecap: round"/>
    <path d="M 223.845026 123.116809 
L 219.524245 124.270434 
L 221.193813 120.121634 
z
" clip-path="url(#pf19a345f29)" style="fill: #808080; stroke: #808080; stroke-linecap: round"/>
   </g>
   <g id="patch_4">
    <path d="M 295.620779 99.339989 
Q 295.620779 105.021458 295.620779 109.584893 
" clip-path="url(#pf19a345f29)" style="fill: none; stroke: #808080; stroke-linecap: round"/>
    <path d="M 297.620779 105.584893 
L 295.620779 109.584893 
L 293.620779 105.584893 
z
" clip-path="url(#pf19a345f29)" style="fill: #808080; stroke: #808080; stroke-linecap: round"/>
   </g>
   <g id="patch_5">
    <path d="M 324.067293 88.387419 
Q 339.100391 105.020813 353.383827 120.824745 
" clip-path="url(#pf19a345f29)" style="fill: none; stroke: #808080; stroke-linecap: round"/>
    <path d="M 352.185549 116.516134 
L 353.383827 120.824745 
L 349.217971 119.198201 
z
" clip-path="url(#pf19a345f29)" style="fill: #808080; stroke: #808080; stroke-linecap: round"/>
   </g>
   <g id="patch_6">
    <path d="M 152.776498 178.315948 
Q 121.697226 201.241088 91.517693 223.50255 
" clip-path="url(#pf19a345f29)" style="fill: none; stroke: #808080; stroke-linecap: round"/>
    <path d="M 95.923922 222.737604 
L 91.517693 223.50255 
L 93.549474 219.518599 
z
" clip-path="url(#pf19a345f29)" style="fill: #808080; stroke: #808080; stroke-linecap: round"/>
   </g>
   <g id="patch_7">
    <path d="M 186.919481 195.558171 
Q 186.919481 201.23964 186.919481 205.803075 
" clip-path="url(#pf19a345f29)" style="fill: none; stroke: #808080; stroke-linecap: round"/>
    <path d="M 188.919481 201.803075 
L 186.919481 205.803075 
L 184.919481 201.803075 
z
" clip-path="url(#pf19a345f29)" style="fill: #808080; stroke: #808080; stroke-linecap: round"/>
   </g>
   <g id="patch_8">
    <path d="M 295.620779 195.558171 
Q 295.620779 201.23964 295.620779 205.803075 
" clip-path="url(#pf19a345f29)" style="fill: none; stroke: #808080; stroke-linecap: round"/>
    <path d="M 297.620779 201.803075 
L 295.620779 205.803075 
L 293.620779 201.803075 
z
" clip-path="url(#pf19a345f29)" style="fill: #808080; stroke: #808080; stroke-linecap: round"/>
   </g>
   <g id="patch_9">
    <path d="M 382.581818 195.558171 
Q 382.581818 201.23964 382.581818 205.803075 
" clip-path="url(#pf19a345f29)" style="fill: none; stroke: #808080; stroke-linecap: round"/>
    <path d="M 384.581818 201.803075 
L 382.581818 205.803075 
L 380.581818 201.803075 
z
" clip-path="url(#pf19a345f29)" style="fill: #808080; stroke: #808080; stroke-linecap: round"/>
   </g>
   <g id="patch_10">
    <path d="M 56.477922 291.776353 
Q 56.477922 297.457821 56.477922 302.021256 
" clip-path="url(#pf19a345f29)" style="fill: none; stroke: #808080; stroke-linecap: round"/>
    <path d="M 58.477922 298.021256 
L 56.477922 302.021256 
L 54.477922 298.021256 
z
" clip-path="url(#pf19a345f29)" style="fill: #808080; stroke: #808080; stroke-linecap: round"/>
   </g>
   <g id="patch_11">
    <path d="M 169.447923 288.011957 
Q 165.178446 297.459895 161.369377 305.888998 
" clip-path="url(#pf19a345f29)" style="fill: none; stroke: #808080; stroke-linecap: round"/>
    <path d="M 164.839126 303.067502 
L 161.369377 305.888998 
L 161.194029 301.420301 
z
" clip-path="url(#pf19a345f29)" style="fill: #808080; stroke: #808080; stroke-linecap: round"/>
   </g>
   <g id="patch_12">
    <path d="M 204.391038 288.011957 
Q 208.660515 297.459895 212.469584 305.888998 
" clip-path="url(#pf19a345f29)" style="fill: none; stroke: #808080; stroke-linecap: round"/>
    <path d="M 212.644932 301.420301 
L 212.469584 305.888998 
L 208.999835 303.067502 
z
" clip-path="url(#pf19a345f29)" style="fill: #808080; stroke: #808080; stroke-linecap: round"/>
   </g>
   <g id="patch_13">
    <path d="M 391.931961 290.731013 
Q 393.451611 297.456689 394.724855 303.091821 
" clip-path="url(#pf19a345f29)" style="fill: none; stroke: #808080; stroke-linecap: round"/>
    <path d="M 395.79411 298.749391 
L 394.724855 303.091821 
L 391.892465 299.630959 
z
" clip-path="url(#pf19a345f29)" style="fill: #808080; stroke: #808080; stroke-linecap: round"/>
   </g>
   <g id="patch_14">
    <path d="M 358.77488 284.470724 
Q 349.969636 297.460826 341.791708 309.525468 
" clip-path="url(#pf19a345f29)" style="fill: none; stroke: #808080; stroke-linecap: round"/>
    <path d="M 345.691573 307.336621 
L 341.791708 309.525468 
L 342.380549 305.092268 
z
" clip-path="url(#pf19a345f29)" style="fill: #808080; stroke: #808080; stroke-linecap: round"/>
   </g>
   <g id="patch_15">
    <path d="M 304.970922 290.731013 
Q 306.490572 297.456689 307.763816 303.091821 
" clip-path="url(#pf19a345f29)" style="fill: none; stroke: #808080; stroke-linecap: round"/>
    <path d="M 308.833072 298.749391 
L 307.763816 303.091821 
L 304.931426 299.630959 
z
" clip-path="url(#pf19a345f29)" style="fill: #808080; stroke: #808080; stroke-linecap: round"/>
   </g>
   <g id="patch_16">
    <path d="M 266.633766 88.985455 
L 266.633766 24.84 
L 324.607792 24.84 
L 324.607792 88.985455 
z
" clip-path="url(#pf19a345f29)" style="fill: #ffffff"/>
   </g>
   <g id="patch_17">
    <path d="M 266.633766 88.985455 
L 266.633766 24.84 
L 324.607792 24.84 
L 324.607792 88.985455 
L 266.633766 88.985455 
z
" clip-path="url(#pf19a345f29)" style="fill: none; opacity: 0"/>
   </g>
   <g id="patch_18">
    <path d="M 157.932468 185.203636 
L 157.932468 121.058182 
L 215.906494 121.058182 
L 215.906494 185.203636 
z
" clip-path="url(#pf19a345f29)" style="fill: #ffffff"/>
   </g>
   <g id="patch_19">
    <path d="M 215.906494 185.203636 
L 157.932468 185.203636 
L 157.932468 121.058182 
L 215.906494 121.058182 
L 204.536869 129.444826 
L 215.906494 175.571341 
L 215.906494 185.203636 
z
" clip-path="url(#pf19a345f29)" style="fill: none; opacity: 0"/>
   </g>
   <g id="patch_20">
    <path d="M 215.906494 121.058182 
L 204.536869 129.444826 
L 215.906494 175.571341 
z
" clip-path="url(#pf19a345f29)" style="fill: #ffbb78"/>
   </g>
   <g id="patch_21">
    <path d="M 27.490909 281.421818 
L 27.490909 217.276364 
L 85.464935 217.276364 
L 85.464935 281.421818 
z
" clip-path="url(#pf19a345f29)" style="fill: #ffffff"/>
   </g>
   <g id="patch_22">
    <path d="M 85.464935 281.421818 
L 27.490909 281.421818 
L 27.490909 249.349091 
L 37.153247 260.04 
L 41.984416 249.349091 
L 41.984416 217.276364 
L 85.464935 217.276364 
L 74.095311 225.663008 
L 85.464935 271.789523 
L 85.464935 281.421818 
z
" clip-path="url(#pf19a345f29)" style="fill: none; opacity: 0"/>
   </g>
   <g id="patch_23">
    <path d="M 27.490909 217.276364 
L 27.490909 249.349091 
L 37.153247 260.04 
L 41.984416 249.349091 
L 41.984416 217.276364 
z
" clip-path="url(#pf19a345f29)" style="fill: #ff7f0e"/>
   </g>
   <g id="patch_24">
    <path d="M 85.464935 217.276364 
L 74.095311 225.663008 
L 85.464935 271.789523 
z
" clip-path="url(#pf19a345f29)" style="fill: #ffbb78"/>
   </g>
   <g id="patch_25">
    <path d="M 27.490909 377.64 
L 27.490909 313.494545 
L 85.464935 313.494545 
L 85.464935 377.64 
z
" clip-path="url(#pf19a345f29)" style="fill: #ffffff"/>
   </g>
   <g id="patch_26">
    <path d="M 85.464935 377.64 
L 27.490909 377.64 
L 27.490909 345.567273 
L 37.153247 356.258182 
L 56.477922 334.876364 
L 51.646753 324.185455 
L 41.984416 345.567273 
L 41.984416 313.494545 
L 85.464935 313.494545 
L 74.095311 321.881189 
L 85.464935 368.007705 
L 85.464935 377.64 
z
" clip-path="url(#pf19a345f29)" style="fill: none; opacity: 0"/>
   </g>
   <g id="patch_27">
    <path d="M 27.490909 313.494545 
L 27.490909 345.567273 
L 37.153247 356.258182 
L 41.984416 345.567273 
L 41.984416 313.494545 
z
" clip-path="url(#pf19a345f29)" style="fill: #ff7f0e"/>
   </g>
   <g id="patch_28">
    <path d="M 85.464935 313.494545 
L 74.095311 321.881189 
L 85.464935 368.007705 
z
" clip-path="url(#pf19a345f29)" style="fill: #ffbb78"/>
   </g>
   <g id="patch_29">
    <path d="M 37.153247 356.258182 
L 56.477922 334.876364 
L 51.646753 324.185455 
z
" clip-path="url(#pf19a345f29)" style="fill: #ff9896"/>
   </g>
   <g id="patch_30">
    <path d="M 157.932468 281.421818 
L 157.932468 217.276364 
L 215.906494 217.276364 
L 215.906494 281.421818 
z
" clip-path="url(#pf19a345f29)" style="fill: #ffffff"/>
   </g>
   <g id="patch_31">
    <path d="M 215.906494 281.421818 
L 157.932468 281.421818 
L 168.180923 277.641994 
L 178.429378 243.623735 
L 157.932468 266.302574 
L 157.932468 217.276364 
L 215.906494 217.276364 
L 204.536869 225.663008 
L 215.906494 271.789523 
L 215.906494 281.421818 
z
" clip-path="url(#pf19a345f29)" style="fill: none; opacity: 0"/>
   </g>
   <g id="patch_32">
    <path d="M 215.906494 217.276364 
L 204.536869 225.663008 
L 215.906494 271.789523 
z
" clip-path="url(#pf19a345f29)" style="fill: #ffbb78"/>
   </g>
   <g id="patch_33">
    <path d="M 157.932468 281.421818 
L 168.180923 277.641994 
L 178.429378 243.623735 
L 157.932468 266.302574 
z
" clip-path="url(#pf19a345f29)" style="fill: #8c564b"/>
   </g>
   <g id="patch_34">
    <path d="M 201.412987 377.64 
L 201.412987 313.494545 
L 259.387013 313.494545 
L 259.387013 377.64 
z
" clip-path="url(#pf19a345f29)" style="fill: #ffffff"/>
   </g>
   <g id="patch_35">
    <path d="M 259.387013 377.64 
L 201.412987 377.64 
L 250.300985 370.878481 
L 256.411979 357.355443 
L 211.661442 373.860176 
L 221.909897 339.841917 
L 201.412987 362.520756 
L 201.412987 313.494545 
L 259.387013 313.494545 
L 248.017389 321.881189 
L 259.387013 368.007705 
L 259.387013 377.64 
z
" clip-path="url(#pf19a345f29)" style="fill: none; opacity: 0"/>
   </g>
   <g id="patch_36">
    <path d="M 259.387013 313.494545 
L 248.017389 321.881189 
L 259.387013 368.007705 
z
" clip-path="url(#pf19a345f29)" style="fill: #ffbb78"/>
   </g>
   <g id="patch_37">
    <path d="M 201.412987 377.64 
L 250.300985 370.878481 
L 256.411979 357.355443 
z
" clip-path="url(#pf19a345f29)" style="fill: #2ca02c"/>
   </g>
   <g id="patch_38">
    <path d="M 201.412987 377.64 
L 211.661442 373.860176 
L 221.909897 339.841917 
L 201.412987 362.520756 
z
" clip-path="url(#pf19a345f29)" style="fill: #8c564b"/>
   </g>
   <g id="patch_39">
    <path d="M 114.451948 377.64 
L 114.451948 313.494545 
L 172.425974 313.494545 
L 172.425974 377.64 
z
" clip-path="url(#pf19a345f29)" style="fill: #ffffff"/>
   </g>
   <g id="patch_40">
    <path d="M 172.425974 377.64 
L 114.451948 377.64 
L 124.700403 373.860176 
L 139.977902 356.956405 
L 133.866918 343.43333 
L 134.948858 339.841917 
L 114.451948 362.520756 
L 114.451948 313.494545 
L 172.425974 313.494545 
L 161.05635 321.881189 
L 172.425974 368.007705 
L 172.425974 377.64 
z
" clip-path="url(#pf19a345f29)" style="fill: none; opacity: 0"/>
   </g>
   <g id="patch_41">
    <path d="M 172.425974 313.494545 
L 161.05635 321.881189 
L 172.425974 368.007705 
z
" clip-path="url(#pf19a345f29)" style="fill: #ffbb78"/>
   </g>
   <g id="patch_42">
    <path d="M 124.700403 373.860176 
L 139.977902 356.956405 
L 133.866918 343.43333 
z
" clip-path="url(#pf19a345f29)" style="fill: #d62728"/>
   </g>
   <g id="patch_43">
    <path d="M 114.451948 377.64 
L 124.700403 373.860176 
L 134.948858 339.841917 
L 114.451948 362.520756 
z
" clip-path="url(#pf19a345f29)" style="fill: #8c564b"/>
   </g>
   <g id="patch_44">
    <path d="M 353.594805 185.203636 
L 353.594805 121.058182 
L 411.568831 121.058182 
L 411.568831 185.203636 
z
" clip-path="url(#pf19a345f29)" style="fill: #ffffff"/>
   </g>
   <g id="patch_45">
    <path d="M 411.568831 121.058182 
L 411.568831 185.203636 
L 402.926595 156.516918 
L 389.963168 185.203636 
L 353.594805 185.203636 
L 353.594805 121.058182 
L 411.568831 121.058182 
z
" clip-path="url(#pf19a345f29)" style="fill: none; opacity: 0"/>
   </g>
   <g id="patch_46">
    <path d="M 411.568831 185.203636 
L 402.926595 156.516918 
L 389.963168 185.203636 
z
" clip-path="url(#pf19a345f29)" style="fill: #98df8a"/>
   </g>
   <g id="patch_47">
    <path d="M 353.594805 281.421818 
L 353.594805 217.276364 
L 411.568831 217.276364 
L 411.568831 281.421818 
z
" clip-path="url(#pf19a345f29)" style="fill: #ffffff"/>
   </g>
   <g id="patch_48">
    <path d="M 411.568831 217.276364 
L 411.568831 281.421818 
L 402.926595 252.7351 
L 376.999789 274.250143 
L 389.963168 281.421818 
L 353.594805 281.421818 
L 353.594805 217.276364 
L 411.568831 217.276364 
z
" clip-path="url(#pf19a345f29)" style="fill: none; opacity: 0"/>
   </g>
   <g id="patch_49">
    <path d="M 411.568831 281.421818 
L 402.926595 252.7351 
L 389.963168 281.421818 
z
" clip-path="url(#pf19a345f29)" style="fill: #98df8a"/>
   </g>
   <g id="patch_50">
    <path d="M 402.926595 252.7351 
L 376.999789 274.250143 
L 389.963168 281.421818 
z
" clip-path="url(#pf19a345f29)" style="fill: #9467bd"/>
   </g>
   <g id="patch_51">
    <path d="M 288.374026 377.64 
L 288.374026 313.494545 
L 346.348052 313.494545 
L 346.348052 377.64 
z
" clip-path="url(#pf19a345f29)" style="fill: #ffffff"/>
   </g>
   <g id="patch_52">
    <path d="M 346.348052 377.64 
L 337.705816 348.953281 
L 311.77901 370.468324 
L 324.742389 377.64 
L 288.374026 377.64 
L 288.374026 313.494545 
L 346.348052 313.494545 
L 336.099597 317.27437 
L 315.602682 339.953209 
L 325.851142 351.292629 
L 346.348052 328.613789 
L 346.348052 377.64 
z
" clip-path="url(#pf19a345f29)" style="fill: none; opacity: 0"/>
   </g>
   <g id="patch_53">
    <path d="M 346.348052 313.494545 
L 336.099597 317.27437 
L 315.602682 339.953209 
L 325.851142 351.292629 
L 346.348052 328.613789 
z
" clip-path="url(#pf19a345f29)" style="fill: #ff7f0e"/>
   </g>
   <g id="patch_54">
    <path d="M 346.348052 377.64 
L 337.705816 348.953281 
L 324.742389 377.64 
z
" clip-path="url(#pf19a345f29)" style="fill: #98df8a"/>
   </g>
   <g id="patch_55">
    <path d="M 337.705816 348.953281 
L 311.77901 370.468324 
L 324.742389 377.64 
z
" clip-path="url(#pf19a345f29)" style="fill: #9467bd"/>
   </g>
   <g id="patch_56">
    <path d="M 375.335065 377.64 
L 375.335065 313.494545 
L 433.309091 313.494545 
L 433.309091 377.64 
z
" clip-path="url(#pf19a345f29)" style="fill: #ffffff"/>
   </g>
   <g id="patch_57">
    <path d="M 433.309091 313.494545 
L 433.309091 377.64 
L 424.666855 348.953281 
L 398.740049 370.468324 
L 411.703428 377.64 
L 375.335065 377.64 
L 375.335065 313.494545 
L 401.261837 323.056762 
L 407.743531 313.494545 
L 433.309091 313.494545 
z
" clip-path="url(#pf19a345f29)" style="fill: none; opacity: 0"/>
   </g>
   <g id="patch_58">
    <path d="M 433.309091 377.64 
L 424.666855 348.953281 
L 411.703428 377.64 
z
" clip-path="url(#pf19a345f29)" style="fill: #98df8a"/>
   </g>
   <g id="patch_59">
    <path d="M 375.335065 313.494545 
L 401.261837 323.056762 
L 407.743531 313.494545 
z
" clip-path="url(#pf19a345f29)" style="fill: #ff9896"/>
   </g>
   <g id="patch_60">
    <path d="M 424.666855 348.953281 
L 398.740049 370.468324 
L 411.703428 377.64 
z
" clip-path="url(#pf19a345f29)" style="fill: #9467bd"/>
   </g>
   <g id="patch_61">
    <path d="M 266.633766 185.203636 
L 266.633766 121.058182 
L 324.607792 121.058182 
L 324.607792 185.203636 
z
" clip-path="url(#pf19a345f29)" style="fill: #ffffff"/>
   </g>
   <g id="patch_62">
    <path d="M 324.607792 185.203636 
L 266.633766 185.203636 
L 266.633766 121.058182 
L 324.607792 121.058182 
L 314.359337 124.838006 
L 293.862422 147.516845 
L 304.110882 158.856265 
L 324.607792 136.177426 
L 324.607792 185.203636 
z
" clip-path="url(#pf19a345f29)" style="fill: none; opacity: 0"/>
   </g>
   <g id="patch_63">
    <path d="M 324.607792 121.058182 
L 314.359337 124.838006 
L 293.862422 147.516845 
L 304.110882 158.856265 
L 324.607792 136.177426 
z
" clip-path="url(#pf19a345f29)" style="fill: #ff7f0e"/>
   </g>
   <g id="patch_64">
    <path d="M 266.633766 281.421818 
L 266.633766 217.276364 
L 324.607792 217.276364 
L 324.607792 281.421818 
z
" clip-path="url(#pf19a345f29)" style="fill: #ffffff"/>
   </g>
   <g id="patch_65">
    <path d="M 266.633766 281.421818 
L 266.633766 217.276364 
L 324.607792 217.276364 
L 314.359337 221.056188 
L 293.862422 243.735027 
L 304.110882 255.074447 
L 324.607792 232.395608 
L 324.607792 281.421818 
L 315.965556 252.7351 
L 303.002129 281.421818 
L 266.633766 281.421818 
z
" clip-path="url(#pf19a345f29)" style="fill: none; opacity: 0"/>
   </g>
   <g id="patch_66">
    <path d="M 324.607792 217.276364 
L 314.359337 221.056188 
L 293.862422 243.735027 
L 304.110882 255.074447 
L 324.607792 232.395608 
z
" clip-path="url(#pf19a345f29)" style="fill: #ff7f0e"/>
   </g>
   <g id="patch_67">
    <path d="M 324.607792 281.421818 
L 315.965556 252.7351 
L 303.002129 281.421818 
z
" clip-path="url(#pf19a345f29)" style="fill: #98df8a"/>
   </g>
   <g id="matplotlib.axis_1">
    <g id="xtick_1"/>
    <g id="xtick_2"/>
    <g id="xtick_3"/>
    <g id="xtick_4"/>
    <g id="xtick_5"/>
    <g id="xtick_6"/>
    <g id="xtick_7"/>
    <g id="xtick_8"/>
   </g>
   <g id="matplotlib.axis_2">
    <g id="ytick_1"/>
    <g id="ytick_2"/>
    <g id="ytick_3"/>
    <g id="ytick_4"/>
    <g id="ytick_5"/>
    <g id="ytick_6"/>
   </g>
   <g id="line2d_1">
    <path d="M 266.633766 88.985455 
L 266.633766 24.84 
L 324.607792 24.84 
L 324.607792 88.985455 
L 266.633766 88.985455 
" clip-path="url(#pf19a345f29)" style="fill: none; stroke: #000000; stroke-linecap: square"/>
   </g>
   <g id="line2d_2">
    <path d="M 266.633766 88.985455 
L 266.633766 24.84 
L 324.607792 24.84 
L 324.607792 88.985455 
L 266.633766 88.985455 
" clip-path="url(#pf19a345f29)" style="fill: none"/>
   </g>
   <g id="line2d_3">
    <path d="M 157.932468 185.203636 
L 157.932468 121.058182 
L 215.906494 121.058182 
L 215.906494 185.203636 
L 157.932468 185.203636 
" clip-path="url(#pf19a345f29)" style="fill: none; stroke: #000000; stroke-linecap: square"/>
   </g>
   <g id="line2d_4">
    <path d="M 215.906494 185.203636 
L 157.932468 185.203636 
L 157.932468 121.058182 
L 215.906494 121.058182 
L 204.536869 129.444826 
L 215.906494 175.571341 
L 215.906494 185.203636 
" clip-path="url(#pf19a345f29)" style="fill: none"/>
   </g>
   <g id="line2d_5">
    <path d="M 215.906494 121.058182 
L 204.536869 129.444826 
L 215.906494 175.571341 
L 215.906494 121.058182 
" clip-path="url(#pf19a345f29)" style="fill: none"/>
   </g>
   <g id="line2d_6">
    <path d="M 27.490909 281.421818 
L 27.490909 217.276364 
L 85.464935 217.276364 
L 85.464935 281.421818 
L 27.490909 281.421818 
" clip-path="url(#pf19a345f29)" style="fill: none; stroke: #000000; stroke-linecap: square"/>
   </g>
   <g id="line2d_7">
    <path d="M 85.464935 281.421818 
L 27.490909 281.421818 
L 27.490909 249.349091 
L 37.153247 260.04 
L 41.984416 249.349091 
L 41.984416 217.276364 
L 85.464935 217.276364 
L 74.095311 225.663008 
L 85.464935 271.789523 
L 85.464935 281.421818 
" clip-path="url(#pf19a345f29)" style="fill: none"/>
   </g>
   <g id="line2d_8">
    <path d="M 27.490909 217.276364 
L 27.490909 249.349091 
L 37.153247 260.04 
L 41.984416 249.349091 
L 41.984416 217.276364 
L 27.490909 217.276364 
" clip-path="url(#pf19a345f29)" style="fill: none"/>
   </g>
   <g id="line2d_9">
    <path d="M 85.464935 217.276364 
L 74.095311 225.663008 
L 85.464935 271.789523 
L 85.464935 217.276364 
" clip-path="url(#pf19a345f29)" style="fill: none"/>
   </g>
   <g id="line2d_10">
    <path d="M 27.490909 377.64 
L 27.490909 313.494545 
L 85.464935 313.494545 
L 85.464935 377.64 
L 27.490909 377.64 
" clip-path="url(#pf19a345f29)" style="fill: none; stroke: #000000; stroke-linecap: square"/>
   </g>
   <g id="line2d_11">
    <path d="M 85.464935 377.64 
L 27.490909 377.64 
L 27.490909 345.567273 
L 37.153247 356.258182 
L 56.477922 334.876364 
L 51.646753 324.185455 
L 41.984416 345.567273 
L 41.984416 313.494545 
L 85.464935 313.494545 
L 74.095311 321.881189 
L 85.464935 368.007705 
L 85.464935 377.64 
" clip-path="url(#pf19a345f29)" style="fill: none"/>
   </g>
   <g id="line2d_12">
    <path d="M 27.490909 313.494545 
L 27.490909 345.567273 
L 37.153247 356.258182 
L 41.984416 345.567273 
L 41.984416 313.494545 
L 27.490909 313.494545 
" clip-path="url(#pf19a345f29)" style="fill: none"/>
   </g>
   <g id="line2d_13">
    <path d="M 85.464935 313.494545 
L 74.095311 321.881189 
L 85.464935 368.007705 
L 85.464935 313.494545 
" clip-path="url(#pf19a345f29)" style="fill: none"/>
   </g>
   <g id="line2d_14">
    <path d="M 37.153247 356.258182 
L 56.477922 334.876364 
L 51.646753 324.185455 
L 37.153247 356.258182 
" clip-path="url(#pf19a345f29)" style="fill: none"/>
   </g>
   <g id="line2d_15">
    <path d="M 157.932468 281.421818 
L 157.932468 217.276364 
L 215.906494 217.276364 
L 215.906494 281.421818 
L 157.932468 281.421818 
" clip-path="url(#pf19a345f29)" style="fill: none; stroke: #000000; stroke-linecap: square"/>
   </g>
   <g id="line2d_16">
    <path d="M 215.906494 281.421818 
L 157.932468 281.421818 
L 168.180923 277.641994 
L 178.429378 243.623735 
L 157.932468 266.302574 
L 157.932468 217.276364 
L 215.906494 217.276364 
L 204.536869 225.663008 
L 215.906494 271.789523 
L 215.906494 281.421818 
" clip-path="url(#pf19a345f29)" style="fill: none"/>
   </g>
   <g id="line2d_17">
    <path d="M 215.906494 217.276364 
L 204.536869 225.663008 
L 215.906494 271.789523 
L 215.906494 217.276364 
" clip-path="url(#pf19a345f29)" style="fill: none"/>
   </g>
   <g id="line2d_18">
    <path d="M 157.932468 281.421818 
L 168.180923 277.641994 
L 178.429378 243.623735 
L 157.932468 266.302574 
L 157.932468 281.421818 
" clip-path="url(#pf19a345f29)" style="fill: none"/>
   </g>
   <g id="line2d_19">
    <path d="M 201.412987 377.64 
L 201.412987 313.494545 
L 259.387013 313.494545 
L 259.387013 377.64 
L 201.412987 377.64 
" clip-path="url(#pf19a345f29)" style="fill: none; stroke: #000000; stroke-linecap: square"/>
   </g>
   <g id="line2d_20">
    <path d="M 259.387013 377.64 
L 201.412987 377.64 
L 250.300985 370.878481 
L 256.411979 357.355443 
L 211.661442 373.860176 
L 221.909897 339.841917 
L 201.412987 362.520756 
L 201.412987 313.494545 
L 259.387013 313.494545 
L 248.017389 321.881189 
L 259.387013 368.007705 
L 259.387013 377.64 
" clip-path="url(#pf19a345f29)" style="fill: none"/>
   </g>
   <g id="line2d_21">
    <path d="M 259.387013 313.494545 
L 248.017389 321.881189 
L 259.387013 368.007705 
L 259.387013 313.494545 
" clip-path="url(#pf19a345f29)" style="fill: none"/>
   </g>
   <g id="line2d_22">
    <path d="M 201.412987 377.64 
L 250.300985 370.878481 
L 256.411979 357.355443 
L 201.412987 377.64 
" clip-path="url(#pf19a345f29)" style="fill: none"/>
   </g>
   <g id="line2d_23">
    <path d="M 201.412987 377.64 
L 211.661442 373.860176 
L 221.909897 339.841917 
L 201.412987 362.520756 
L 201.412987 377.64 
" clip-path="url(#pf19a345f29)" style="fill: none"/>
   </g>
   <g id="line2d_24">
    <path d="M 114.451948 377.64 
L 114.451948 313.494545 
L 172.425974 313.494545 
L 172.425974 377.64 
L 114.451948 377.64 
" clip-path="url(#pf19a345f29)" style="fill: none; stroke: #000000; stroke-linecap: square"/>
   </g>
   <g id="line2d_25">
    <path d="M 172.425974 377.64 
L 114.451948 377.64 
L 124.700403 373.860176 
L 139.977902 356.956405 
L 133.866918 343.43333 
L 134.948858 339.841917 
L 114.451948 362.520756 
L 114.451948 313.494545 
L 172.425974 313.494545 
L 161.05635 321.881189 
L 172.425974 368.007705 
L 172.425974 377.64 
" clip-path="url(#pf19a345f29)" style="fill: none"/>
   </g>
   <g id="line2d_26">
    <path d="M 172.425974 313.494545 
L 161.05635 321.881189 
L 172.425974 368.007705 
L 172.425974 313.494545 
" clip-path="url(#pf19a345f29)" style="fill: none"/>
   </g>
   <g id="line2d_27">
    <path d="M 124.700403 373.860176 
L 139.977902 356.956405 
L 133.866918 343.43333 
L 124.700403 373.860176 
" clip-path="url(#pf19a345f29)" style="fill: none"/>
   </g>
   <g id="line2d_28">
    <path d="M 114.451948 377.64 
L 124.700403 373.860176 
L 134.948858 339.841917 
L 114.451948 362.520756 
L 114.451948 377.64 
" clip-path="url(#pf19a345f29)" style="fill: none"/>
   </g>
   <g id="line2d_29">
    <path d="M 353.594805 185.203636 
L 353.594805 121.058182 
L 411.568831 121.058182 
L 411.568831 185.203636 
L 353.594805 185.203636 
" clip-path="url(#pf19a345f29)" style="fill: none; stroke: #000000; stroke-linecap: square"/>
   </g>
   <g id="line2d_30">
    <path d="M 411.568831 121.058182 
L 411.568831 185.203636 
L 402.926595 156.516918 
L 389.963168 185.203636 
L 353.594805 185.203636 
L 353.594805 121.058182 
L 411.568831 121.058182 
" clip-path="url(#pf19a345f29)" style="fill: none"/>
   </g>
   <g id="line2d_31">
    <path d="M 411.568831 185.203636 
L 402.926595 156.516918 
L 389.963168 185.203636 
L 411.568831 185.203636 
" clip-path="url(#pf19a345f29)" style="fill: none"/>
   </g>
   <g id="line2d_32">
    <path d="M 353.594805 281.421818 
L 353.594805 217.276364 
L 411.568831 217.276364 
L 411.568831 281.421818 
L 353.594805 281.421818 
" clip-path="url(#pf19a345f29)" style="fill: none; stroke: #000000; stroke-linecap: square"/>
   </g>
   <g id="line2d_33">
    <path d="M 411.568831 217.276364 
L 411.568831 281.421818 
L 402.926595 252.7351 
L 376.999789 274.250143 
L 389.963168 281.421818 
L 353.594805 281.421818 
L 353.594805 217.276364 
L 411.568831 217.276364 
" clip-path="url(#pf19a345f29)" style="fill: none"/>
   </g>
   <g id="line2d_34">
    <path d="M 411.568831 281.421818 
L 402.926595 252.7351 
L 389.963168 281.421818 
L 411.568831 281.421818 
" clip-path="url(#pf19a345f29)" style="fill: none"/>
   </g>
   <g id="line2d_35">
    <path d="M 402.926595 252.7351 
L 376.999789 274.250143 
L 389.963168 281.421818 
L 402.926595 252.7351 
" clip-path="url(#pf19a345f29)" style="fill: none"/>
   </g>
   <g id="line2d_36">
    <path d="M 288.374026 377.64 
L 288.374026 313.494545 
L 346.348052 313.494545 
L 346.348052 377.64 
L 288.374026 377.64 
" clip-path="url(#pf19a345f29)" style="fill: none; stroke: #000000; stroke-linecap: square"/>
   </g>
   <g id="line2d_37">
    <path d="M 346.348052 377.64 
L 337.705816 348.953281 
L 311.77901 370.468324 
L 324.742389 377.64 
L 288.374026 377.64 
L 288.374026 313.494545 
L 346.348052 313.494545 
L 336.099597 317.27437 
L 315.602682 339.953209 
L 325.851142 351.292629 
L 346.348052 328.613789 
L 346.348052 377.64 
" clip-path="url(#pf19a345f29)" style="fill: none"/>
   </g>
   <g id="line2d_38">
    <path d="M 346.348052 313.494545 
L 336.099597 317.27437 
L 315.602682 339.953209 
L 325.851142 351.292629 
L 346.348052 328.613789 
L 346.348052 313.494545 
" clip-path="url(#pf19a345f29)" style="fill: none"/>
   </g>
   <g id="line2d_39">
    <path d="M 346.348052 377.64 
L 337.705816 348.953281 
L 324.742389 377.64 
L 346.348052 377.64 
" clip-path="url(#pf19a345f29)" style="fill: none"/>
   </g>
   <g id="line2d_40">
    <path d="M 337.705816 348.953281 
L 311.77901 370.468324 
L 324.742389 377.64 
L 337.705816 348.953281 
" clip-path="url(#pf19a345f29)" style="fill: none"/>
   </g>
   <g id="line2d_41">
    <path d="M 375.335065 377.64 
L 375.335065 313.494545 
L 433.309091 313.494545 
L 433.309091 377.64 
L 375.335065 377.64 
" clip-path="url(#pf19a345f29)" style="fill: none; stroke: #000000; stroke-linecap: square"/>
   </g>
   <g id="line2d_42">
    <path d="M 433.309091 313.494545 
L 433.309091 377.64 
L 424.666855 348.953281 
L 398.740049 370.468324 
L 411.703428 377.64 
L 375.335065 377.64 
L 375.335065 313.494545 
L 401.261837 323.056762 
L 407.743531 313.494545 
L 433.309091 313.494545 
" clip-path="url(#pf19a345f29)" style="fill: none"/>
   </g>
   <g id="line2d_43">
    <path d="M 433.309091 377.64 
L 424.666855 348.953281 
L 411.703428 377.64 
L 433.309091 377.64 
" clip-path="url(#pf19a345f29)" style="fill: none"/>
   </g>
   <g id="line2d_44">
    <path d="M 375.335065 313.494545 
L 401.261837 323.056762 
L 407.743531 313.494545 
L 375.335065 313.494545 
" clip-path="url(#pf19a345f29)" style="fill: none"/>
   </g>
   <g id="line2d_45">
    <path d="M 424.666855 348.953281 
L 398.740049 370.468324 
L 411.703428 377.64 
L 424.666855 348.953281 
" clip-path="url(#pf19a345f29)" style="fill: none"/>
   </g>
   <g id="line2d_46">
    <path d="M 266.633766 185.203636 
L 266.633766 121.058182 
L 324.607792 121.058182 
L 324.607792 185.203636 
L 266.633766 185.203636 
" clip-path="url(#pf19a345f29)" style="fill: none; stroke: #000000; stroke-linecap: square"/>
   </g>
   <g id="line2d_47">
    <path d="M 324.607792 185.203636 
L 266.633766 185.203636 
L 266.633766 121.058182 
L 324.607792 121.058182 
L 314.359337 124.838006 
L 293.862422 147.516845 
L 304.110882 158.856265 
L 324.607792 136.177426 
L 324.607792 185.203636 
" clip-path="url(#pf19a345f29)" style="fill: none"/>
   </g>
   <g id="line2d_48">
    <path d="M 324.607792 121.058182 
L 314.359337 124.838006 
L 293.862422 147.516845 
L 304.110882 158.856265 
L 324.607792 136.177426 
L 324.607792 121.058182 
" clip-path="url(#pf19a345f29)" style="fill: none"/>
   </g>
   <g id="line2d_49">
    <path d="M 266.633766 281.421818 
L 266.633766 217.276364 
L 324.607792 217.276364 
L 324.607792 281.421818 
L 266.633766 281.421818 
" clip-path="url(#pf19a345f29)" style="fill: none; stroke: #000000; stroke-linecap: square"/>
   </g>
   <g id="line2d_50">
    <path d="M 266.633766 281.421818 
L 266.633766 217.276364 
L 324.607792 217.276364 
L 314.359337 221.056188 
L 293.862422 243.735027 
L 304.110882 255.074447 
L 324.607792 232.395608 
L 324.607792 281.421818 
L 315.965556 252.7351 
L 303.002129 281.421818 
L 266.633766 281.421818 
" clip-path="url(#pf19a345f29)" style="fill: none"/>
   </g>
   <g id="line2d_51">
    <path d="M 324.607792 217.276364 
L 314.359337 221.056188 
L 293.862422 243.735027 
L 304.110882 255.074447 
L 324.607792 232.395608 
L 324.607792 217.276364 
" clip-path="url(#pf19a345f29)" style="fill: none"/>
   </g>
   <g id="line2d_52">
    <path d="M 324.607792 281.421818 
L 315.965556 252.7351 
L 303.002129 281.421818 
L 324.607792 281.421818 
" clip-path="url(#pf19a345f29)" style="fill: none"/>
   </g>
  </g>
 </g>
 <defs>
  <clipPath id="pf19a345f29">
   <rect x="7.2" y="7.2" width="446.4" height="388.08"/>
  </clipPath>
 </defs>
</svg>
