<?xml version="1.0" encoding="utf-8" standalone="no"?>
<!DOCTYPE svg PUBLIC "-//W3C//DTD SVG 1.1//EN"
  "http://www.w3.org/Graphics/SVG/1.1/DTD/svg11.dtd">
<svg xmlns:xlink="http://www.w3.org/1999/xlink" width="349.2pt" height="347.04pt" viewBox="0 0 349.2 347.04" xmlns="http://www.w3.org/2000/svg" version="1.1">
 <metadata>
  <rdf:RDF xmlns:dc="http://purl.org/dc/elements/1.1/" xmlns:cc="http://creativecommons.org/ns#" xmlns:rdf="http://www.w3.org/1999/02/22-rdf-syntax-ns#">
   <cc:Work>
    <dc:type rdf:resource="http://purl.org/dc/dcmitype/StillImage"/>
    <dc:date>2025-06-06T01:17:55.935944</dc:date>
    <dc:format>image/svg+xml</dc:format>
    <dc:creator>
     <cc:Agent>
      <dc:title>Matplotlib v3.10.3, https://matplotlib.org/</dc:title>
     </cc:Agent>
    </dc:creator>
   </cc:Work>
  </rdf:RDF>
 </metadata>
 <defs>
  <style type="text/css">*{stroke-linejoin: round; stroke-linecap: butt}</style>
 </defs>
 <g id="figure_1">
  <g id="patch_1">
   <path d="M 0 347.04 
L 349.2 347.04 
L 349.2 -0 
L 0 -0 
L 0 347.04 
z
" style="fill: none"/>
  </g>
  <g id="axes_1">
   <g id="patch_2">
    <path d="M 7.2 339.84 
L 342 339.84 
L 342 7.2 
L 7.2 7.2 
L 7.2 339.84 
z
" style="fill: none"/>
   </g>
   <g id="matplotlib.axis_1">
    <g id="xtick_1"/>
    <g id="xtick_2"/>
    <g id="xtick_3"/>
    <g id="xtick_4"/>
    <g id="xtick_5"/>
    <g id="xtick_6"/>
    <g id="xtick_7"/>
   </g>
   <g id="matplotlib.axis_2">
    <g id="ytick_1"/>
    <g id="ytick_2"/>
    <g id="ytick_3"/>
    <g id="ytick_4"/>
    <g id="ytick_5"/>
    <g id="ytick_6"/>
    <g id="ytick_7"/>
   </g>
   <g id="patch_3">
    <path d="M 336.6 12.565161 
L 336.6 334.474839 
L 12.6 334.474839 
L 12.6 12.565161 
L 336.6 12.565161 
z
" clip-path="url(#p769eca4f9f)" style="fill: none; opacity: 0"/>
   </g>
   <g id="line2d_1">
    <path d="M 336.6 12.565161 
L 336.6 334.474839 
L 12.6 334.474839 
L 12.6 12.565161 
L 336.6 12.565161 
" clip-path="url(#p769eca4f9f)" style="fill: none"/>
   </g>
   <g id="line2d_2">
    <path d="M 336.6 12.565161 
L 336.6 334.474839 
L 12.6 334.474839 
L 12.6 12.565161 
L 336.6 12.565161 
" clip-path="url(#p769eca4f9f)" style="fill: none; stroke: #ffffff; stroke-width: 8; stroke-linecap: square"/>
   </g>
   <g id="patch_4">
    <path d="M 336.6 12.565161 
L 336.6 334.474839 
L 12.6 334.474839 
L 12.6 12.565161 
L 336.6 12.565161 
z
" clip-path="url(#p769eca4f9f)" style="fill: none; opacity: 0"/>
   </g>
   <g id="line2d_3">
    <path d="M 336.6 12.565161 
L 336.6 334.474839 
L 12.6 334.474839 
L 12.6 12.565161 
L 336.6 12.565161 
" clip-path="url(#p769eca4f9f)" style="fill: none; stroke: #000000; stroke-width: 4; stroke-linecap: square"/>
   </g>
   <g id="patch_5">
    <path d="M 344.1 167.250778 
Q 340.35 174.750778 336.6 182.250778 
Q 332.85 174.750778 329.1 167.250778 
z
" clip-path="url(#p769eca4f9f)" style="stroke: #ffffff; stroke-linecap: round"/>
   </g>
   <g id="patch_6">
    <path d="M 180.797759 341.974839 
Q 173.297759 338.224839 165.797759 334.474839 
Q 173.297759 330.724839 180.797759 326.974839 
z
" clip-path="url(#p769eca4f9f)" style="stroke: #ffffff; stroke-linecap: round"/>
   </g>
   <g id="patch_7">
    <path d="M 5.1 179.789222 
Q 8.85 172.289222 12.6 164.789222 
Q 16.35 172.289222 20.1 179.789222 
z
" clip-path="url(#p769eca4f9f)" style="stroke: #ffffff; stroke-linecap: round"/>
   </g>
   <g id="patch_8">
    <path d="M 168.402241 5.065161 
Q 175.902241 8.815161 183.402241 12.565161 
Q 175.902241 16.315161 168.402241 20.065161 
z
" clip-path="url(#p769eca4f9f)" style="stroke: #ffffff; stroke-linecap: round"/>
   </g>
  </g>
 </g>
 <defs>
  <clipPath id="p769eca4f9f">
   <rect x="7.2" y="7.2" width="334.8" height="332.64"/>
  </clipPath>
 </defs>
</svg>
