<?xml version="1.0" encoding="utf-8" standalone="no"?>
<!DOCTYPE svg PUBLIC "-//W3C//DTD SVG 1.1//EN"
  "http://www.w3.org/Graphics/SVG/1.1/DTD/svg11.dtd">
<svg xmlns:xlink="http://www.w3.org/1999/xlink" width="349.2pt" height="347.04pt" viewBox="0 0 349.2 347.04" xmlns="http://www.w3.org/2000/svg" version="1.1">
 <metadata>
  <rdf:RDF xmlns:dc="http://purl.org/dc/elements/1.1/" xmlns:cc="http://creativecommons.org/ns#" xmlns:rdf="http://www.w3.org/1999/02/22-rdf-syntax-ns#">
   <cc:Work>
    <dc:type rdf:resource="http://purl.org/dc/dcmitype/StillImage"/>
    <dc:date>2025-06-06T01:17:56.159537</dc:date>
    <dc:format>image/svg+xml</dc:format>
    <dc:creator>
     <cc:Agent>
      <dc:title>Matplotlib v3.10.3, https://matplotlib.org/</dc:title>
     </cc:Agent>
    </dc:creator>
   </cc:Work>
  </rdf:RDF>
 </metadata>
 <defs>
  <style type="text/css">*{stroke-linejoin: round; stroke-linecap: butt}</style>
 </defs>
 <g id="figure_1">
  <g id="patch_1">
   <path d="M 0 347.04 
L 349.2 347.04 
L 349.2 -0 
L 0 -0 
L 0 347.04 
z
" style="fill: none"/>
  </g>
  <g id="axes_1">
   <g id="patch_2">
    <path d="M 7.2 339.84 
L 342 339.84 
L 342 7.2 
L 7.2 7.2 
L 7.2 339.84 
z
" style="fill: none"/>
   </g>
   <g id="matplotlib.axis_1">
    <g id="xtick_1"/>
    <g id="xtick_2"/>
    <g id="xtick_3"/>
    <g id="xtick_4"/>
    <g id="xtick_5"/>
    <g id="xtick_6"/>
    <g id="xtick_7"/>
   </g>
   <g id="matplotlib.axis_2">
    <g id="ytick_1"/>
    <g id="ytick_2"/>
    <g id="ytick_3"/>
    <g id="ytick_4"/>
    <g id="ytick_5"/>
    <g id="ytick_6"/>
    <g id="ytick_7"/>
   </g>
   <g id="patch_3">
    <path d="M 336.6 12.565161 
L 336.6 334.474839 
L 12.6 334.474839 
L 12.6 12.565161 
L 336.6 12.565161 
z
" clip-path="url(#p2a33fd561c)" style="fill: none; opacity: 0"/>
   </g>
   <g id="line2d_1">
    <path d="M 336.6 12.565161 
L 336.6 334.474839 
L 12.6 334.474839 
L 12.6 12.565161 
L 336.6 12.565161 
" clip-path="url(#p2a33fd561c)" style="fill: none"/>
   </g>
   <g id="patch_4">
    <path d="M 26.1 321.061935 
L 75.6 75.15871 
L 26.1 25.978065 
z
" clip-path="url(#p2a33fd561c)" style="fill: #2ca02c"/>
   </g>
   <g id="line2d_2">
    <path d="M 336.6 12.565161 
L 336.6 334.474839 
L 39.6 334.474839 
L 31.395136 294.757068 
L 75.6 75.15871 
L 26.1 25.978065 
L 26.1 294.236129 
L 12.6 307.649032 
L 12.6 12.565161 
L 336.6 12.565161 
" clip-path="url(#p2a33fd561c)" style="fill: none; stroke: #ffffff; stroke-width: 8; stroke-linecap: square"/>
   </g>
   <g id="line2d_3">
    <path d="M 26.1 321.061935 
L 75.6 75.15871 
L 26.1 25.978065 
L 26.1 321.061935 
" clip-path="url(#p2a33fd561c)" style="fill: none"/>
   </g>
   <g id="patch_5">
    <path d="M 336.6 12.565161 
L 336.6 334.474839 
L 39.6 334.474839 
L 31.395136 294.757068 
L 75.6 75.15871 
L 26.1 25.978065 
L 26.1 294.236129 
L 12.6 307.649032 
L 12.6 12.565161 
L 336.6 12.565161 
z
" clip-path="url(#p2a33fd561c)" style="fill: none; opacity: 0"/>
   </g>
   <g id="line2d_4">
    <path d="M 336.6 12.565161 
L 336.6 334.474839 
L 39.6 334.474839 
L 31.395136 294.757068 
L 75.6 75.15871 
L 26.1 25.978065 
L 26.1 294.236129 
L 12.6 307.649032 
L 12.6 12.565161 
L 336.6 12.565161 
" clip-path="url(#p2a33fd561c)" style="fill: none; stroke: #000000; stroke-width: 4; stroke-linecap: square"/>
   </g>
   <g id="patch_6">
    <path d="M 344.1 167.250778 
Q 340.35 174.750778 336.6 182.250778 
Q 332.85 174.750778 329.1 167.250778 
z
" clip-path="url(#p2a33fd561c)" style="stroke: #ffffff; stroke-linecap: round"/>
   </g>
   <g id="patch_7">
    <path d="M 194.297759 341.974839 
Q 186.797759 338.224839 179.297759 334.474839 
Q 186.797759 330.724839 194.297759 326.974839 
z
" clip-path="url(#p2a33fd561c)" style="stroke: #ffffff; stroke-linecap: round"/>
   </g>
   <g id="patch_8">
    <path d="M 29.420498 322.270596 
Q 31.575649 314.167027 33.7308 306.063458 
Q 38.920565 312.649721 44.110329 319.235983 
z
" clip-path="url(#p2a33fd561c)" style="stroke: #ffffff; stroke-linecap: round"/>
   </g>
   <g id="patch_9">
    <path d="M 44.908317 189.621631 
Q 50.064625 183.009144 55.220933 176.396656 
Q 57.417138 184.489195 59.613343 192.581734 
z
" clip-path="url(#p2a33fd561c)" style="stroke: #ffffff; stroke-linecap: round"/>
   </g>
   <g id="patch_10">
    <path d="M 49.985862 60.282267 
Q 47.308482 52.335938 44.631101 44.38961 
Q 52.594592 47.015502 60.558083 49.641395 
z
" clip-path="url(#p2a33fd561c)" style="stroke: #ffffff; stroke-linecap: round"/>
   </g>
   <g id="patch_11">
    <path d="M 33.6 153.837875 
Q 29.85 161.337875 26.1 168.837875 
Q 22.35 161.337875 18.6 153.837875 
z
" clip-path="url(#p2a33fd561c)" style="stroke: #ffffff; stroke-linecap: round"/>
   </g>
   <g id="patch_12">
    <path d="M 29.058083 301.869573 
Q 21.094592 304.495465 13.131101 307.121358 
Q 15.808482 299.175029 18.485862 291.228701 
z
" clip-path="url(#p2a33fd561c)" style="stroke: #ffffff; stroke-linecap: round"/>
   </g>
   <g id="patch_13">
    <path d="M 5.1 166.376319 
Q 8.85 158.876319 12.6 151.376319 
Q 16.35 158.876319 20.1 166.376319 
z
" clip-path="url(#p2a33fd561c)" style="stroke: #ffffff; stroke-linecap: round"/>
   </g>
   <g id="patch_14">
    <path d="M 168.402241 5.065161 
Q 175.902241 8.815161 183.402241 12.565161 
Q 175.902241 16.315161 168.402241 20.065161 
z
" clip-path="url(#p2a33fd561c)" style="stroke: #ffffff; stroke-linecap: round"/>
   </g>
  </g>
 </g>
 <defs>
  <clipPath id="p2a33fd561c">
   <rect x="7.2" y="7.2" width="334.8" height="332.64"/>
  </clipPath>
 </defs>
</svg>
