<?xml version="1.0" encoding="utf-8" standalone="no"?>
<!DOCTYPE svg PUBLIC "-//W3C//DTD SVG 1.1//EN"
  "http://www.w3.org/Graphics/SVG/1.1/DTD/svg11.dtd">
<svg xmlns:xlink="http://www.w3.org/1999/xlink" width="293.4pt" height="347.04pt" viewBox="0 0 293.4 347.04" xmlns="http://www.w3.org/2000/svg" version="1.1">
 <metadata>
  <rdf:RDF xmlns:dc="http://purl.org/dc/elements/1.1/" xmlns:cc="http://creativecommons.org/ns#" xmlns:rdf="http://www.w3.org/1999/02/22-rdf-syntax-ns#">
   <cc:Work>
    <dc:type rdf:resource="http://purl.org/dc/dcmitype/StillImage"/>
    <dc:date>2025-06-06T23:30:17.479586</dc:date>
    <dc:format>image/svg+xml</dc:format>
    <dc:creator>
     <cc:Agent>
      <dc:title>Matplotlib v3.10.3, https://matplotlib.org/</dc:title>
     </cc:Agent>
    </dc:creator>
   </cc:Work>
  </rdf:RDF>
 </metadata>
 <defs>
  <style type="text/css">*{stroke-linejoin: round; stroke-linecap: butt}</style>
 </defs>
 <g id="figure_1">
  <g id="patch_1">
   <path d="M 0 347.04 
L 293.4 347.04 
L 293.4 -0 
L 0 -0 
L 0 347.04 
z
" style="fill: none"/>
  </g>
  <g id="axes_1">
   <g id="patch_2">
    <path d="M 7.2 339.84 
L 286.2 339.84 
L 286.2 7.2 
L 7.2 7.2 
L 7.2 339.84 
z
" style="fill: none"/>
   </g>
   <g id="matplotlib.axis_1">
    <g id="xtick_1"/>
    <g id="xtick_2"/>
    <g id="xtick_3"/>
    <g id="xtick_4"/>
    <g id="xtick_5"/>
    <g id="xtick_6"/>
    <g id="xtick_7"/>
    <g id="xtick_8"/>
   </g>
   <g id="matplotlib.axis_2">
    <g id="ytick_1"/>
    <g id="ytick_2"/>
    <g id="ytick_3"/>
    <g id="ytick_4"/>
    <g id="ytick_5"/>
    <g id="ytick_6"/>
    <g id="ytick_7"/>
    <g id="ytick_8"/>
    <g id="ytick_9"/>
   </g>
   <g id="line2d_1">
    <path d="M 14.95 332.104186 
L 247.45 332.104186 
L 247.45 100.029767 
L 14.95 100.029767 
L 14.95 332.104186 
" clip-path="url(#p7849fe7671)" style="fill: none; stroke: #ffffff; stroke-width: 6; stroke-linecap: square"/>
   </g>
   <g id="patch_3">
    <path d="M 14.95 332.104186 
L 247.45 332.104186 
L 247.45 100.029767 
L 14.95 100.029767 
L 14.95 332.104186 
z
" clip-path="url(#p7849fe7671)" style="fill: none; opacity: 0"/>
   </g>
   <g id="line2d_2">
    <path d="M 14.95 332.104186 
L 247.45 332.104186 
L 247.45 100.029767 
L 14.95 100.029767 
L 14.95 332.104186 
" clip-path="url(#p7849fe7671)" style="fill: none; stroke: #000000; stroke-width: 3; stroke-linecap: square"/>
   </g>
   <g id="line2d_3">
    <path d="M 53.7 254.746047 
L 200.95 239.274419 
L 92.45 22.671628 
L 53.7 254.746047 
" clip-path="url(#p7849fe7671)" style="fill: none"/>
   </g>
   <g id="line2d_4">
    <path d="M 208.7 84.55814 
L 262.95 92.293953 
L 255.2 22.671628 
L 208.7 84.55814 
" clip-path="url(#p7849fe7671)" style="fill: none"/>
   </g>
   <g id="line2d_5">
    <path d="M 22.7 316.632558 
L 185.45 247.010233 
L 239.7 316.632558 
L 22.7 316.632558 
" clip-path="url(#p7849fe7671)" style="fill: none"/>
   </g>
   <g id="patch_4">
    <path d="M 53.7 254.746047 
L 200.95 239.274419 
L 92.45 22.671628 
z
" clip-path="url(#p7849fe7671)" style="fill: #d62728"/>
   </g>
   <g id="patch_5">
    <path d="M 208.7 84.55814 
L 262.95 92.293953 
L 255.2 22.671628 
z
" clip-path="url(#p7849fe7671)" style="fill: #d62728"/>
   </g>
   <g id="patch_6">
    <path d="M 22.7 316.632558 
L 185.45 247.010233 
L 239.7 316.632558 
z
" clip-path="url(#p7849fe7671)" style="fill: #1f77b4"/>
   </g>
   <g id="line2d_6">
    <path d="M 53.7 254.746047 
L 200.95 239.274419 
L 92.45 22.671628 
L 53.7 254.746047 
" clip-path="url(#p7849fe7671)" style="fill: none"/>
   </g>
   <g id="line2d_7">
    <path d="M 208.7 84.55814 
L 262.95 92.293953 
L 255.2 22.671628 
L 208.7 84.55814 
" clip-path="url(#p7849fe7671)" style="fill: none"/>
   </g>
   <g id="line2d_8">
    <path d="M 22.7 316.632558 
L 185.45 247.010233 
L 239.7 316.632558 
L 22.7 316.632558 
" clip-path="url(#p7849fe7671)" style="fill: none"/>
   </g>
  </g>
 </g>
 <defs>
  <clipPath id="p7849fe7671">
   <rect x="7.2" y="7.2" width="279" height="332.64"/>
  </clipPath>
 </defs>
</svg>
