<?xml version="1.0" encoding="utf-8" standalone="no"?>
<!DOCTYPE svg PUBLIC "-//W3C//DTD SVG 1.1//EN"
  "http://www.w3.org/Graphics/SVG/1.1/DTD/svg11.dtd">
<svg xmlns:xlink="http://www.w3.org/1999/xlink" width="293.4pt" height="291.6pt" viewBox="0 0 293.4 291.6" xmlns="http://www.w3.org/2000/svg" version="1.1">
 <metadata>
  <rdf:RDF xmlns:dc="http://purl.org/dc/elements/1.1/" xmlns:cc="http://creativecommons.org/ns#" xmlns:rdf="http://www.w3.org/1999/02/22-rdf-syntax-ns#">
   <cc:Work>
    <dc:type rdf:resource="http://purl.org/dc/dcmitype/StillImage"/>
    <dc:date>2025-06-06T23:27:33.425717</dc:date>
    <dc:format>image/svg+xml</dc:format>
    <dc:creator>
     <cc:Agent>
      <dc:title>Matplotlib v3.10.3, https://matplotlib.org/</dc:title>
     </cc:Agent>
    </dc:creator>
   </cc:Work>
  </rdf:RDF>
 </metadata>
 <defs>
  <style type="text/css">*{stroke-linejoin: round; stroke-linecap: butt}</style>
 </defs>
 <g id="figure_1">
  <g id="patch_1">
   <path d="M 0 291.6 
L 293.4 291.6 
L 293.4 0 
L 0 0 
L 0 291.6 
z
" style="fill: none"/>
  </g>
  <g id="axes_1">
   <g id="patch_2">
    <path d="M 7.2 284.4 
L 286.2 284.4 
L 286.2 7.2 
L 7.2 7.2 
L 7.2 284.4 
z
" style="fill: none"/>
   </g>
   <g id="matplotlib.axis_1">
    <g id="xtick_1"/>
    <g id="xtick_2"/>
    <g id="xtick_3"/>
    <g id="xtick_4"/>
    <g id="xtick_5"/>
    <g id="xtick_6"/>
    <g id="xtick_7"/>
   </g>
   <g id="matplotlib.axis_2">
    <g id="ytick_1"/>
    <g id="ytick_2"/>
    <g id="ytick_3"/>
    <g id="ytick_4"/>
    <g id="ytick_5"/>
    <g id="ytick_6"/>
    <g id="ytick_7"/>
   </g>
   <g id="line2d_1">
    <path d="M 27.128571 264.6 
L 266.271429 264.6 
L 266.271429 145.8 
L 146.7 145.8 
L 146.7 27 
L 27.128571 27 
L 27.128571 264.6 
" clip-path="url(#pdf8c3b370f)" style="fill: none; stroke: #ffffff; stroke-width: 6; stroke-linecap: square"/>
   </g>
   <g id="patch_3">
    <path d="M 27.128571 264.6 
L 266.271429 264.6 
L 266.271429 145.8 
L 146.7 145.8 
L 146.7 27 
L 27.128571 27 
L 27.128571 264.6 
z
" clip-path="url(#pdf8c3b370f)" style="fill: none; opacity: 0"/>
   </g>
   <g id="line2d_2">
    <path d="M 27.128571 264.6 
L 266.271429 264.6 
L 266.271429 145.8 
L 146.7 145.8 
L 146.7 27 
L 27.128571 27 
L 27.128571 264.6 
" clip-path="url(#pdf8c3b370f)" style="fill: none; stroke: #000000; stroke-width: 3; stroke-linecap: square"/>
   </g>
   <g id="patch_4">
    <path d="M 137.673062 257.1 
Q 145.173062 260.85 152.673062 264.6 
Q 145.173062 268.35 137.673062 272.1 
z
" clip-path="url(#pdf8c3b370f)" style="stroke: #ffffff; stroke-linecap: round"/>
   </g>
   <g id="patch_5">
    <path d="M 258.771429 214.277646 
Q 262.521429 206.777646 266.271429 199.277646 
Q 270.021429 206.777646 273.771429 214.277646 
z
" clip-path="url(#pdf8c3b370f)" style="stroke: #ffffff; stroke-linecap: round"/>
   </g>
   <g id="patch_6">
    <path d="M 215.512653 153.3 
Q 208.012653 149.55 200.512653 145.8 
Q 208.012653 142.05 215.512653 138.3 
z
" clip-path="url(#pdf8c3b370f)" style="stroke: #ffffff; stroke-linecap: round"/>
   </g>
   <g id="patch_7">
    <path d="M 139.2 95.477646 
Q 142.95 87.977646 146.7 80.477646 
Q 150.45 87.977646 154.2 95.477646 
z
" clip-path="url(#pdf8c3b370f)" style="stroke: #ffffff; stroke-linecap: round"/>
   </g>
   <g id="patch_8">
    <path d="M 95.941224 34.5 
Q 88.441224 30.75 80.941224 27 
Q 88.441224 23.25 95.941224 19.5 
z
" clip-path="url(#pdf8c3b370f)" style="stroke: #ffffff; stroke-linecap: round"/>
   </g>
   <g id="patch_9">
    <path d="M 34.628571 136.722354 
Q 30.878571 144.222354 27.128571 151.722354 
Q 23.378571 144.222354 19.628571 136.722354 
z
" clip-path="url(#pdf8c3b370f)" style="stroke: #ffffff; stroke-linecap: round"/>
   </g>
   <g id="line2d_3">
    <path d="M 66.985714 27 
L 138.728571 27 
L 27.128571 225 
L 66.985714 27 
" clip-path="url(#pdf8c3b370f)" style="fill: none; stroke: #ffffff; stroke-width: 3; stroke-linecap: square"/>
   </g>
   <g id="line2d_4">
    <path d="M 146.7 122.04 
L 146.7 66.6 
L 258.3 145.8 
L 202.5 145.8 
L 146.7 122.04 
" clip-path="url(#pdf8c3b370f)" style="fill: none; stroke: #ffffff; stroke-width: 3; stroke-linecap: square"/>
   </g>
   <g id="patch_10">
    <path d="M 66.985714 27 
L 138.728571 27 
L 27.128571 225 
z
" clip-path="url(#pdf8c3b370f)" style="fill: #1f77b4"/>
   </g>
   <g id="patch_11">
    <path d="M 146.7 122.04 
L 146.7 66.6 
L 258.3 145.8 
L 202.5 145.8 
z
" clip-path="url(#pdf8c3b370f)" style="fill: #d62728"/>
   </g>
   <g id="line2d_5">
    <path d="M 66.985714 27 
L 138.728571 27 
L 27.128571 225 
L 66.985714 27 
" clip-path="url(#pdf8c3b370f)" style="fill: none; stroke: #000000; stroke-width: 1.5; stroke-linecap: square"/>
   </g>
   <g id="line2d_6">
    <path d="M 146.7 122.04 
L 146.7 66.6 
L 258.3 145.8 
L 202.5 145.8 
L 146.7 122.04 
" clip-path="url(#pdf8c3b370f)" style="fill: none; stroke: #000000; stroke-width: 1.5; stroke-linecap: square"/>
   </g>
   <g id="patch_12">
    <path d="M 93.830205 19.5 
Q 101.330205 23.25 108.830205 27 
Q 101.330205 30.75 93.830205 34.5 
z
" clip-path="url(#pdf8c3b370f)" style="fill: #1f77b4; stroke: #ffffff; stroke-linecap: round"/>
   </g>
   <g id="patch_13">
    <path d="M 93.914937 121.782604 
Q 86.965518 126.474947 80.016099 131.16729 
Q 80.431876 122.792349 80.847654 114.417408 
z
" clip-path="url(#pdf8c3b370f)" style="fill: #1f77b4; stroke: #ffffff; stroke-linecap: round"/>
   </g>
   <g id="patch_14">
    <path d="M 37.913538 133.417629 
Q 43.069846 126.805141 48.226154 120.192654 
Q 50.422359 128.285193 52.618564 136.377731 
z
" clip-path="url(#pdf8c3b370f)" style="fill: #1f77b4; stroke: #ffffff; stroke-linecap: round"/>
   </g>
   <g id="patch_15">
    <path d="M 139.2 103.397646 
Q 142.95 95.897646 146.7 88.397646 
Q 150.45 95.897646 154.2 103.397646 
z
" clip-path="url(#pdf8c3b370f)" style="fill: #d62728; stroke: #ffffff; stroke-linecap: round"/>
   </g>
   <g id="patch_16">
    <path d="M 199.465853 94.850003 
Q 203.411855 102.248757 207.357857 109.647512 
Q 199.071253 108.365061 190.784648 107.08261 
z
" clip-path="url(#pdf8c3b370f)" style="fill: #d62728; stroke: #ffffff; stroke-linecap: round"/>
   </g>
   <g id="patch_17">
    <path d="M 239.426938 153.3 
Q 231.926938 149.55 224.426938 145.8 
Q 231.926938 142.05 239.426938 138.3 
z
" clip-path="url(#pdf8c3b370f)" style="fill: #d62728; stroke: #ffffff; stroke-linecap: round"/>
   </g>
   <g id="patch_18">
    <path d="M 179.975539 144.36055 
Q 174.544196 137.972043 169.112853 131.583537 
Q 177.482463 131.071566 185.852074 130.559596 
z
" clip-path="url(#pdf8c3b370f)" style="fill: #d62728; stroke: #ffffff; stroke-linecap: round"/>
   </g>
  </g>
 </g>
 <defs>
  <clipPath id="pdf8c3b370f">
   <rect x="7.2" y="7.2" width="279" height="277.2"/>
  </clipPath>
 </defs>
</svg>
