<?xml version="1.0" encoding="utf-8" standalone="no"?>
<!DOCTYPE svg PUBLIC "-//W3C//DTD SVG 1.1//EN"
  "http://www.w3.org/Graphics/SVG/1.1/DTD/svg11.dtd">
<svg xmlns:xlink="http://www.w3.org/1999/xlink" width="572.4pt" height="125.28pt" viewBox="0 0 572.4 125.28" xmlns="http://www.w3.org/2000/svg" version="1.1">
 <metadata>
  <rdf:RDF xmlns:dc="http://purl.org/dc/elements/1.1/" xmlns:cc="http://creativecommons.org/ns#" xmlns:rdf="http://www.w3.org/1999/02/22-rdf-syntax-ns#">
   <cc:Work>
    <dc:type rdf:resource="http://purl.org/dc/dcmitype/StillImage"/>
    <dc:date>2025-06-06T02:01:37.084053</dc:date>
    <dc:format>image/svg+xml</dc:format>
    <dc:creator>
     <cc:Agent>
      <dc:title>Matplotlib v3.10.3, https://matplotlib.org/</dc:title>
     </cc:Agent>
    </dc:creator>
   </cc:Work>
  </rdf:RDF>
 </metadata>
 <defs>
  <style type="text/css">*{stroke-linejoin: round; stroke-linecap: butt}</style>
 </defs>
 <g id="figure_1">
  <g id="patch_1">
   <path d="M 0 125.28 
L 572.4 125.28 
L 572.4 0 
L 0 0 
L 0 125.28 
z
" style="fill: none"/>
  </g>
  <g id="axes_1">
   <g id="patch_2">
    <path d="M 7.2 118.08 
L 565.2 118.08 
L 565.2 7.2 
L 7.2 7.2 
L 7.2 118.08 
z
" style="fill: none"/>
   </g>
   <g id="matplotlib.axis_1">
    <g id="xtick_1"/>
    <g id="xtick_2"/>
    <g id="xtick_3"/>
    <g id="xtick_4"/>
    <g id="xtick_5"/>
    <g id="xtick_6"/>
   </g>
   <g id="matplotlib.axis_2">
    <g id="ytick_1"/>
    <g id="ytick_2"/>
    <g id="ytick_3"/>
    <g id="ytick_4"/>
    <g id="ytick_5"/>
   </g>
   <g id="line2d_1">
    <path d="M 7.2 62.64 
L 111.825 62.64 
L 216.45 62.64 
L 321.075 62.64 
L 425.7 62.64 
L 530.325 62.64 
" clip-path="url(#p82a0a115ff)" style="fill: none; stroke: #ffffff; stroke-width: 6; stroke-linecap: square"/>
   </g>
   <g id="line2d_2">
    <path d="M 7.2 62.64 
L 111.825 62.64 
L 216.45 62.64 
L 321.075 62.64 
L 425.7 62.64 
L 530.325 62.64 
" clip-path="url(#p82a0a115ff)" style="fill: none; stroke: #000000; stroke-width: 3; stroke-linecap: square"/>
   </g>
   <g id="patch_3">
    <path d="M 49.49037 55.14 
Q 56.99037 58.89 64.49037 62.64 
Q 56.99037 66.39 49.49037 70.14 
z
" clip-path="url(#p82a0a115ff)" style="stroke: #ffffff; stroke-linecap: round"/>
   </g>
   <g id="patch_4">
    <path d="M 154.11537 55.14 
Q 161.61537 58.89 169.11537 62.64 
Q 161.61537 66.39 154.11537 70.14 
z
" clip-path="url(#p82a0a115ff)" style="stroke: #ffffff; stroke-linecap: round"/>
   </g>
   <g id="patch_5">
    <path d="M 258.74037 55.14 
Q 266.24037 58.89 273.74037 62.64 
Q 266.24037 66.39 258.74037 70.14 
z
" clip-path="url(#p82a0a115ff)" style="stroke: #ffffff; stroke-linecap: round"/>
   </g>
   <g id="patch_6">
    <path d="M 363.36537 55.14 
Q 370.86537 58.89 378.36537 62.64 
Q 370.86537 66.39 363.36537 70.14 
z
" clip-path="url(#p82a0a115ff)" style="stroke: #ffffff; stroke-linecap: round"/>
   </g>
   <g id="patch_7">
    <path d="M 467.99037 55.14 
Q 475.49037 58.89 482.99037 62.64 
Q 475.49037 66.39 467.99037 70.14 
z
" clip-path="url(#p82a0a115ff)" style="stroke: #ffffff; stroke-linecap: round"/>
   </g>
   <g id="line2d_3">
    <path d="M 76.95 12.24 
L 111.825 62.64 
L 146.7 12.24 
" clip-path="url(#p82a0a115ff)" style="fill: none; stroke: #d62728; stroke-width: 6; stroke-linecap: square"/>
   </g>
   <g id="line2d_4">
    <path d="M 111.825 113.04 
L 146.7 62.64 
L 181.575 113.04 
" clip-path="url(#p82a0a115ff)" style="fill: none; stroke: #1f77b4; stroke-width: 6; stroke-linecap: square"/>
   </g>
   <g id="line2d_5">
    <path d="M 216.45 12.24 
L 216.45 62.64 
L 251.325 113.04 
" clip-path="url(#p82a0a115ff)" style="fill: none; stroke: #d62728; stroke-width: 6; stroke-linecap: square"/>
   </g>
   <g id="line2d_6">
    <path d="M 293.175 62.64 
L 355.95 62.64 
L 390.825 113.04 
" clip-path="url(#p82a0a115ff)" style="fill: none; stroke: #1f77b4; stroke-width: 6; stroke-linecap: square"/>
   </g>
   <g id="line2d_7">
    <path d="M 404.775 62.64 
L 460.575 62.64 
L 495.45 12.24 
" clip-path="url(#p82a0a115ff)" style="fill: none; stroke: #d62728; stroke-width: 6; stroke-linecap: square"/>
   </g>
   <g id="patch_8">
    <path d="M 93.999179 23.698236 
Q 95.183106 31.99949 96.367033 40.300744 
Q 89.015673 36.267133 81.664314 32.233522 
z
" clip-path="url(#p82a0a115ff)" style="fill: #d62728; stroke: #ffffff; stroke-linecap: round"/>
   </g>
   <g id="patch_9">
    <path d="M 116.539314 42.646478 
Q 123.890673 38.612867 131.242033 34.579256 
Q 130.058106 42.88051 128.874179 51.181764 
z
" clip-path="url(#p82a0a115ff)" style="fill: #d62728; stroke: #ffffff; stroke-linecap: round"/>
   </g>
   <g id="patch_10">
    <path d="M 116.539314 93.046478 
Q 123.890673 89.012867 131.242033 84.979256 
Q 130.058106 93.28051 128.874179 101.581764 
z
" clip-path="url(#p82a0a115ff)" style="fill: #1f77b4; stroke: #ffffff; stroke-linecap: round"/>
   </g>
   <g id="patch_11">
    <path d="M 163.749179 74.098236 
Q 164.933106 82.39949 166.117033 90.700744 
Q 158.765673 86.667133 151.414314 82.633522 
z
" clip-path="url(#p82a0a115ff)" style="fill: #1f77b4; stroke: #ffffff; stroke-linecap: round"/>
   </g>
   <g id="patch_12">
    <path d="M 223.95 25.478205 
Q 220.2 32.978205 216.45 40.478205 
Q 212.7 32.978205 208.95 25.478205 
z
" clip-path="url(#p82a0a115ff)" style="fill: #d62728; stroke: #ffffff; stroke-linecap: round"/>
   </g>
   <g id="patch_13">
    <path d="M 233.499179 74.098236 
Q 234.683106 82.39949 235.867033 90.700744 
Q 228.515673 86.667133 221.164314 82.633522 
z
" clip-path="url(#p82a0a115ff)" style="fill: #d62728; stroke: #ffffff; stroke-linecap: round"/>
   </g>
   <g id="patch_14">
    <path d="M 314.54037 55.14 
Q 322.04037 58.89 329.54037 62.64 
Q 322.04037 66.39 314.54037 70.14 
z
" clip-path="url(#p82a0a115ff)" style="fill: #1f77b4; stroke: #ffffff; stroke-linecap: round"/>
   </g>
   <g id="patch_15">
    <path d="M 372.999179 74.098236 
Q 374.183106 82.39949 375.367033 90.700744 
Q 368.015673 86.667133 360.664314 82.633522 
z
" clip-path="url(#p82a0a115ff)" style="fill: #1f77b4; stroke: #ffffff; stroke-linecap: round"/>
   </g>
   <g id="patch_16">
    <path d="M 422.65287 55.14 
Q 430.15287 58.89 437.65287 62.64 
Q 430.15287 66.39 422.65287 70.14 
z
" clip-path="url(#p82a0a115ff)" style="fill: #d62728; stroke: #ffffff; stroke-linecap: round"/>
   </g>
   <g id="patch_17">
    <path d="M 465.289314 42.646478 
Q 472.640673 38.612867 479.992033 34.579256 
Q 478.808106 42.88051 477.624179 51.181764 
z
" clip-path="url(#p82a0a115ff)" style="fill: #d62728; stroke: #ffffff; stroke-linecap: round"/>
   </g>
  </g>
 </g>
 <defs>
  <clipPath id="p82a0a115ff">
   <rect x="7.2" y="7.2" width="558" height="110.88"/>
  </clipPath>
 </defs>
</svg>
